<svg width="1728" height="357" viewBox="0 0 1728 357" fill="none" xmlns="http://www.w3.org/2000/svg">
<g filter="url(#filter0_d_589_7)">
<rect x="1" y="35" width="1727" height="279" fill="white"/>
</g>
<path d="M780.859 118.6H787.759V119.9H782.259V124.8H786.459V126.1H782.259V132H780.859V118.6ZM793.059 118.2H793.459L798.559 132H797.019L795.759 128.48H790.679L789.419 132H787.959L793.059 118.2ZM795.299 127.18L793.219 121.38L791.139 127.18H795.299ZM806.251 130.82C809.211 130.82 811.451 128.44 811.451 125.3C811.451 122.16 809.211 119.78 806.251 119.78C803.291 119.78 801.051 122.16 801.051 125.3C801.051 128.44 803.291 130.82 806.251 130.82ZM810.571 135.68C807.811 135.68 805.851 134.24 805.531 132.16C802.171 131.78 799.551 128.88 799.551 125.3C799.551 121.5 802.571 118.4 806.251 118.4C809.931 118.4 812.951 121.48 812.951 125.28C812.951 128.8 810.391 131.74 807.051 132.16C807.351 133.46 808.731 134.3 810.711 134.3C812.151 134.3 812.511 134.14 812.571 134.14L812.751 135.5C812.671 135.52 812.011 135.68 810.571 135.68Z" fill="black"/>
<path d="M786.954 181.2C783.194 181.2 780.314 178.22 780.314 174.38C780.314 170.46 783.334 167.4 787.014 167.4C789.014 167.4 790.794 168.3 792.054 169.74L790.994 170.64C789.954 169.44 788.574 168.78 786.974 168.78C784.014 168.78 781.814 171.1 781.814 174.28C781.814 177.48 784.014 179.82 787.054 179.82C788.734 179.82 790.114 179.1 791.054 177.98L792.054 178.84C790.794 180.3 789.034 181.2 786.954 181.2ZM796.867 181.2C795.007 181.2 793.647 180.02 793.647 178.34C793.647 176.6 795.187 175.36 797.207 175.36C798.327 175.36 799.127 175.58 799.947 176.08V175.5C799.947 173.84 798.967 172.76 797.507 172.76C796.567 172.76 795.787 173.18 795.187 174L794.227 173.2C795.107 172.16 796.287 171.6 797.567 171.6C799.727 171.6 801.247 173.18 801.247 175.34V181H799.947V179.56C799.167 180.68 798.127 181.2 796.867 181.2ZM797.107 180.04C798.767 180.04 799.947 178.94 799.947 177.34C799.067 176.72 798.307 176.46 797.167 176.46C795.807 176.46 794.947 177.16 794.947 178.28C794.947 179.38 795.767 180.04 797.107 180.04ZM803.957 166.8H805.257V181H803.957V166.8ZM812.298 181.2C809.498 181.2 807.558 179.18 807.558 176.4C807.558 173.62 809.458 171.6 812.098 171.6C814.598 171.6 816.458 173.42 816.458 176.04C816.458 176.3 816.438 176.54 816.398 176.76H808.938C809.098 178.76 810.438 179.96 812.378 179.96C813.598 179.96 814.598 179.5 815.418 178.56L816.258 179.26C815.298 180.54 813.898 181.2 812.298 181.2ZM815.058 175.6C814.838 173.84 813.678 172.84 812.058 172.84C810.378 172.84 809.238 173.92 808.978 175.6H815.058ZM818.664 171.8H819.964V173.22C820.704 172.14 821.644 171.6 822.824 171.6C824.824 171.6 826.264 173.18 826.264 175.34V181H824.964V175.52C824.964 173.84 824.004 172.8 822.484 172.8C820.964 172.8 819.964 173.9 819.964 175.52V181H818.664V171.8ZM832.857 181.2C830.397 181.2 828.457 179.08 828.457 176.4C828.457 173.72 830.397 171.6 832.877 171.6C834.257 171.6 835.417 172.24 836.157 173.34V166.8H837.457V181H836.157V179.44C835.417 180.56 834.237 181.2 832.857 181.2ZM833.077 179.98C834.977 179.98 836.357 178.4 836.357 176.4C836.357 174.38 834.977 172.8 833.077 172.8C831.197 172.8 829.817 174.38 829.817 176.4C829.817 178.44 831.217 179.98 833.077 179.98ZM842.785 181.2C840.925 181.2 839.565 180.02 839.565 178.34C839.565 176.6 841.105 175.36 843.125 175.36C844.245 175.36 845.045 175.58 845.865 176.08V175.5C845.865 173.84 844.885 172.76 843.425 172.76C842.485 172.76 841.705 173.18 841.105 174L840.145 173.2C841.025 172.16 842.205 171.6 843.485 171.6C845.645 171.6 847.165 173.18 847.165 175.34V181H845.865V179.56C845.085 180.68 844.045 181.2 842.785 181.2ZM843.025 180.04C844.685 180.04 845.865 178.94 845.865 177.34C844.985 176.72 844.225 176.46 843.085 176.46C841.725 176.46 840.865 177.16 840.865 178.28C840.865 179.38 841.685 180.04 843.025 180.04ZM849.875 171.8H851.175V173.2C851.875 172.14 852.775 171.6 853.855 171.6C854.075 171.6 854.255 171.62 854.395 171.64L854.135 173.1C853.975 173.06 853.795 173.04 853.595 173.04C852.155 173.04 851.175 173.98 851.175 175.52V181H849.875V171.8Z" fill="black"/>
<path d="M781.134 216.6H788.034V217.9H782.534V222.4H786.734V223.7H782.534V228.7H788.134V230H781.134V216.6ZM790.134 224.1H794.534V225.5H790.134V224.1ZM797.13 216.6H800.33C803.01 216.6 804.93 218.3 804.93 220.64C804.93 222.98 803.01 224.68 800.33 224.68H798.53V230H797.13V216.6ZM800.33 223.38C802.25 223.38 803.53 222.3 803.53 220.62C803.53 218.96 802.25 217.9 800.33 217.9H798.53V223.38H800.33ZM806.847 220.8H808.147V222.2C808.847 221.14 809.747 220.6 810.827 220.6C811.047 220.6 811.227 220.62 811.367 220.64L811.107 222.1C810.947 222.06 810.767 222.04 810.567 222.04C809.127 222.04 808.147 222.98 808.147 224.52V230H806.847V220.8ZM816.868 230.2C814.268 230.2 812.168 228.04 812.168 225.4C812.168 222.76 814.268 220.6 816.868 220.6C819.468 220.6 821.568 222.76 821.568 225.4C821.568 228.04 819.468 230.2 816.868 230.2ZM816.868 228.98C818.788 228.98 820.208 227.46 820.208 225.4C820.208 223.34 818.788 221.82 816.868 221.82C814.948 221.82 813.528 223.34 813.528 225.4C813.528 227.46 814.948 228.98 816.868 228.98ZM827.039 230.2C825.439 230.2 824.099 229.54 823.159 228.18L824.119 227.36C824.879 228.5 825.859 229.06 827.079 229.06C828.359 229.06 829.179 228.48 829.179 227.54C829.179 226.76 828.579 226.36 827.059 225.96C824.759 225.38 823.779 224.52 823.779 223.16C823.779 221.62 825.019 220.6 826.919 220.6C828.359 220.6 829.559 221.18 830.419 222.3L829.459 223.1C828.819 222.2 827.959 221.74 826.879 221.74C825.759 221.74 825.079 222.24 825.079 223.06C825.079 223.84 825.679 224.26 827.219 224.64C829.479 225.2 830.479 226.06 830.479 227.44C830.479 229.1 829.059 230.2 827.039 230.2ZM837.165 229C839.025 229 840.425 227.42 840.425 225.4C840.425 223.36 839.025 221.82 837.165 221.82C835.265 221.82 833.885 223.4 833.885 225.4C833.885 227.42 835.265 229 837.165 229ZM832.785 220.8H834.085V222.36C834.825 221.24 836.005 220.6 837.385 220.6C839.845 220.6 841.785 222.72 841.785 225.4C841.785 228.08 839.845 230.2 837.365 230.2C835.985 230.2 834.825 229.56 834.085 228.46V235H832.785V220.8ZM848.333 230.2C845.533 230.2 843.593 228.18 843.593 225.4C843.593 222.62 845.493 220.6 848.133 220.6C850.633 220.6 852.493 222.42 852.493 225.04C852.493 225.3 852.473 225.54 852.433 225.76H844.973C845.133 227.76 846.473 228.96 848.413 228.96C849.633 228.96 850.633 228.5 851.453 227.56L852.293 228.26C851.333 229.54 849.933 230.2 848.333 230.2ZM851.093 224.6C850.873 222.84 849.713 221.84 848.093 221.84C846.413 221.84 845.273 222.92 845.013 224.6H851.093ZM858.899 230.2C856.299 230.2 854.199 228.04 854.199 225.4C854.199 222.76 856.279 220.6 858.879 220.6C860.399 220.6 861.759 221.32 862.619 222.5L861.679 223.28C860.979 222.34 859.979 221.82 858.859 221.82C856.959 221.82 855.559 223.36 855.559 225.38C855.559 227.46 856.959 228.98 858.939 228.98C860.119 228.98 861.119 228.48 861.819 227.54L862.679 228.24C861.819 229.44 860.479 230.2 858.899 230.2ZM867.937 230.2C866.417 230.2 865.477 229.2 865.477 227.54V221.96H864.077V220.8H865.477V218.36H866.777V220.8H869.517V221.96H866.777V227.54C866.777 228.5 867.257 229.04 868.117 229.04C868.657 229.04 869.137 228.82 869.517 228.4L870.157 229.16C869.597 229.82 868.877 230.2 867.937 230.2ZM875.187 230.2C873.187 230.2 871.747 228.62 871.747 226.46V220.8H873.047V226.28C873.047 227.96 874.007 229 875.527 229C877.047 229 878.047 227.9 878.047 226.28V220.8H879.347V230H878.047V228.58C877.307 229.66 876.347 230.2 875.187 230.2ZM885.32 230.2C883.72 230.2 882.38 229.54 881.44 228.18L882.4 227.36C883.16 228.5 884.14 229.06 885.36 229.06C886.64 229.06 887.46 228.48 887.46 227.54C887.46 226.76 886.86 226.36 885.34 225.96C883.04 225.38 882.06 224.52 882.06 223.16C882.06 221.62 883.3 220.6 885.2 220.6C886.64 220.6 887.84 221.18 888.7 222.3L887.74 223.1C887.1 222.2 886.24 221.74 885.16 221.74C884.04 221.74 883.36 222.24 883.36 223.06C883.36 223.84 883.96 224.26 885.5 224.64C887.76 225.2 888.76 226.06 888.76 227.44C888.76 229.1 887.34 230.2 885.32 230.2Z" fill="black"/>
<path d="M1004.17 118.6H1007.37C1010.05 118.6 1011.97 120.24 1011.97 122.54C1011.97 124.42 1010.73 125.84 1008.95 126.32L1012.77 132H1011.09L1007.37 126.48H1005.57V132H1004.17V118.6ZM1007.37 125.18C1009.29 125.18 1010.57 124.14 1010.57 122.52C1010.57 120.92 1009.29 119.9 1007.37 119.9H1005.57V125.18H1007.37ZM1018.81 132.2C1016.01 132.2 1014.07 130.18 1014.07 127.4C1014.07 124.62 1015.97 122.6 1018.61 122.6C1021.11 122.6 1022.97 124.42 1022.97 127.04C1022.97 127.3 1022.95 127.54 1022.91 127.76H1015.45C1015.61 129.76 1016.95 130.96 1018.89 130.96C1020.11 130.96 1021.11 130.5 1021.93 129.56L1022.77 130.26C1021.81 131.54 1020.41 132.2 1018.81 132.2ZM1021.57 126.6C1021.35 124.84 1020.19 123.84 1018.57 123.84C1016.89 123.84 1015.75 124.92 1015.49 126.6H1021.57ZM1029.09 135.84C1031.03 135.84 1032.17 135.14 1032.17 133.94C1032.17 132.76 1031.09 132.06 1029.11 132.06C1027.19 132.06 1026.07 132.74 1026.07 133.94C1026.07 135.14 1027.17 135.84 1029.09 135.84ZM1028.87 128.34C1030.39 128.34 1031.37 127.42 1031.37 126.04C1031.37 124.66 1030.39 123.76 1028.87 123.76C1027.35 123.76 1026.37 124.66 1026.37 126.04C1026.37 127.46 1027.35 128.34 1028.87 128.34ZM1029.09 137C1026.47 137 1024.77 135.8 1024.77 134C1024.77 132.9 1025.37 132.12 1026.43 131.64C1025.57 131.34 1025.07 130.76 1025.07 130.04C1025.07 129.4 1025.47 128.84 1026.11 128.52C1025.45 127.9 1025.07 127.06 1025.07 126.04C1025.07 124.02 1026.63 122.6 1028.91 122.6C1029.41 122.6 1029.85 122.66 1030.25 122.8H1033.47V123.96H1031.99C1032.45 124.54 1032.67 125.22 1032.67 126.04C1032.67 128.08 1031.11 129.5 1028.87 129.5C1028.19 129.5 1027.57 129.38 1027.03 129.12C1026.57 129.2 1026.33 129.52 1026.33 129.92C1026.33 130.56 1027.01 130.9 1028.13 130.9H1029.45C1031.95 130.9 1033.47 132.04 1033.47 133.86C1033.47 135.78 1031.73 137 1029.09 137ZM1035.56 122.8H1036.86V132H1035.56V122.8ZM1036.2 120.92C1035.66 120.92 1035.26 120.5 1035.26 119.96C1035.26 119.42 1035.68 119 1036.22 119C1036.76 119 1037.16 119.42 1037.16 119.96C1037.16 120.5 1036.74 120.92 1036.2 120.92ZM1042.85 132.2C1041.25 132.2 1039.91 131.54 1038.97 130.18L1039.93 129.36C1040.69 130.5 1041.67 131.06 1042.89 131.06C1044.17 131.06 1044.99 130.48 1044.99 129.54C1044.99 128.76 1044.39 128.36 1042.87 127.96C1040.57 127.38 1039.59 126.52 1039.59 125.16C1039.59 123.62 1040.83 122.6 1042.73 122.6C1044.17 122.6 1045.37 123.18 1046.23 124.3L1045.27 125.1C1044.63 124.2 1043.77 123.74 1042.69 123.74C1041.57 123.74 1040.89 124.24 1040.89 125.06C1040.89 125.84 1041.49 126.26 1043.03 126.64C1045.29 127.2 1046.29 128.06 1046.29 129.44C1046.29 131.1 1044.87 132.2 1042.85 132.2ZM1051.75 132.2C1050.23 132.2 1049.29 131.2 1049.29 129.54V123.96H1047.89V122.8H1049.29V120.36H1050.59V122.8H1053.33V123.96H1050.59V129.54C1050.59 130.5 1051.07 131.04 1051.93 131.04C1052.47 131.04 1052.95 130.82 1053.33 130.4L1053.97 131.16C1053.41 131.82 1052.69 132.2 1051.75 132.2ZM1055.66 122.8H1056.96V124.2C1057.66 123.14 1058.56 122.6 1059.64 122.6C1059.86 122.6 1060.04 122.62 1060.18 122.64L1059.92 124.1C1059.76 124.06 1059.58 124.04 1059.38 124.04C1057.94 124.04 1056.96 124.98 1056.96 126.52V132H1055.66V122.8ZM1064.39 132.2C1062.53 132.2 1061.17 131.02 1061.17 129.34C1061.17 127.6 1062.71 126.36 1064.73 126.36C1065.85 126.36 1066.65 126.58 1067.47 127.08V126.5C1067.47 124.84 1066.49 123.76 1065.03 123.76C1064.09 123.76 1063.31 124.18 1062.71 125L1061.75 124.2C1062.63 123.16 1063.81 122.6 1065.09 122.6C1067.25 122.6 1068.77 124.18 1068.77 126.34V132H1067.47V130.56C1066.69 131.68 1065.65 132.2 1064.39 132.2ZM1064.63 131.04C1066.29 131.04 1067.47 129.94 1067.47 128.34C1066.59 127.72 1065.83 127.46 1064.69 127.46C1063.33 127.46 1062.47 128.16 1062.47 129.28C1062.47 130.38 1063.29 131.04 1064.63 131.04ZM1074.64 132.2C1073.12 132.2 1072.18 131.2 1072.18 129.54V123.96H1070.78V122.8H1072.18V120.36H1073.48V122.8H1076.22V123.96H1073.48V129.54C1073.48 130.5 1073.96 131.04 1074.82 131.04C1075.36 131.04 1075.84 130.82 1076.22 130.4L1076.86 131.16C1076.3 131.82 1075.58 132.2 1074.64 132.2ZM1078.55 122.8H1079.85V132H1078.55V122.8ZM1079.19 120.92C1078.65 120.92 1078.25 120.5 1078.25 119.96C1078.25 119.42 1078.67 119 1079.21 119C1079.75 119 1080.15 119.42 1080.15 119.96C1080.15 120.5 1079.73 120.92 1079.19 120.92ZM1086.85 132.2C1084.25 132.2 1082.15 130.04 1082.15 127.4C1082.15 124.76 1084.25 122.6 1086.85 122.6C1089.45 122.6 1091.55 124.76 1091.55 127.4C1091.55 130.04 1089.45 132.2 1086.85 132.2ZM1086.85 130.98C1088.77 130.98 1090.19 129.46 1090.19 127.4C1090.19 125.34 1088.77 123.82 1086.85 123.82C1084.93 123.82 1083.51 125.34 1083.51 127.4C1083.51 129.46 1084.93 130.98 1086.85 130.98ZM1093.85 122.8H1095.15V124.22C1095.89 123.14 1096.83 122.6 1098.01 122.6C1100.01 122.6 1101.45 124.18 1101.45 126.34V132H1100.15V126.52C1100.15 124.84 1099.19 123.8 1097.67 123.8C1096.15 123.8 1095.15 124.9 1095.15 126.52V132H1093.85V122.8ZM1108.93 118.6H1115.83V119.9H1110.33V124.8H1114.53V126.1H1110.33V132H1108.93V118.6ZM1121.23 132.2C1118.63 132.2 1116.53 130.04 1116.53 127.4C1116.53 124.76 1118.63 122.6 1121.23 122.6C1123.83 122.6 1125.93 124.76 1125.93 127.4C1125.93 130.04 1123.83 132.2 1121.23 132.2ZM1121.23 130.98C1123.15 130.98 1124.57 129.46 1124.57 127.4C1124.57 125.34 1123.15 123.82 1121.23 123.82C1119.31 123.82 1117.89 125.34 1117.89 127.4C1117.89 129.46 1119.31 130.98 1121.23 130.98ZM1128.22 122.8H1129.52V124.2C1130.22 123.14 1131.12 122.6 1132.2 122.6C1132.42 122.6 1132.6 122.62 1132.74 122.64L1132.48 124.1C1132.32 124.06 1132.14 124.04 1131.94 124.04C1130.5 124.04 1129.52 124.98 1129.52 126.52V132H1128.22V122.8ZM1134.43 122.8H1135.73V124.22C1136.47 123.14 1137.41 122.6 1138.59 122.6C1139.95 122.6 1141.07 123.32 1141.61 124.5C1142.31 123.3 1143.41 122.6 1144.79 122.6C1146.87 122.6 1148.33 124.18 1148.33 126.34V132H1147.03V126.52C1147.03 124.86 1146.07 123.8 1144.55 123.8C1143.03 123.8 1142.03 124.84 1142.03 126.52V132H1140.73V126.52C1140.73 124.84 1139.77 123.8 1138.25 123.8C1136.73 123.8 1135.73 124.9 1135.73 126.52V132H1134.43V122.8Z" fill="black"/>
<path d="M1004.19 167.6H1007.19C1009.65 167.6 1011.43 169.08 1011.43 171.1C1011.43 172.32 1010.79 173.3 1009.67 173.92C1011.21 174.48 1012.19 175.7 1012.19 177.24C1012.19 179.4 1010.27 181 1007.59 181H1004.19V167.6ZM1007.59 179.7C1009.51 179.7 1010.79 178.7 1010.79 177.16C1010.79 175.64 1009.51 174.64 1007.59 174.64H1005.59V179.7H1007.59ZM1007.19 173.4C1008.93 173.4 1010.03 172.54 1010.03 171.18C1010.03 169.8 1008.89 168.9 1007.19 168.9H1005.59V173.4H1007.19ZM1014.79 166.8H1016.09V181H1014.79V166.8ZM1023.09 181.2C1020.49 181.2 1018.39 179.04 1018.39 176.4C1018.39 173.76 1020.49 171.6 1023.09 171.6C1025.69 171.6 1027.79 173.76 1027.79 176.4C1027.79 179.04 1025.69 181.2 1023.09 181.2ZM1023.09 179.98C1025.01 179.98 1026.43 178.46 1026.43 176.4C1026.43 174.34 1025.01 172.82 1023.09 172.82C1021.17 172.82 1019.75 174.34 1019.75 176.4C1019.75 178.46 1021.17 179.98 1023.09 179.98ZM1034 184.84C1035.94 184.84 1037.08 184.14 1037.08 182.94C1037.08 181.76 1036 181.06 1034.02 181.06C1032.1 181.06 1030.98 181.74 1030.98 182.94C1030.98 184.14 1032.08 184.84 1034 184.84ZM1033.78 177.34C1035.3 177.34 1036.28 176.42 1036.28 175.04C1036.28 173.66 1035.3 172.76 1033.78 172.76C1032.26 172.76 1031.28 173.66 1031.28 175.04C1031.28 176.46 1032.26 177.34 1033.78 177.34ZM1034 186C1031.38 186 1029.68 184.8 1029.68 183C1029.68 181.9 1030.28 181.12 1031.34 180.64C1030.48 180.34 1029.98 179.76 1029.98 179.04C1029.98 178.4 1030.38 177.84 1031.02 177.52C1030.36 176.9 1029.98 176.06 1029.98 175.04C1029.98 173.02 1031.54 171.6 1033.82 171.6C1034.32 171.6 1034.76 171.66 1035.16 171.8H1038.38V172.96H1036.9C1037.36 173.54 1037.58 174.22 1037.58 175.04C1037.58 177.08 1036.02 178.5 1033.78 178.5C1033.1 178.5 1032.48 178.38 1031.94 178.12C1031.48 178.2 1031.24 178.52 1031.24 178.92C1031.24 179.56 1031.92 179.9 1033.04 179.9H1034.36C1036.86 179.9 1038.38 181.04 1038.38 182.86C1038.38 184.78 1036.64 186 1034 186ZM1043.26 181.2C1041.66 181.2 1040.32 180.54 1039.38 179.18L1040.34 178.36C1041.1 179.5 1042.08 180.06 1043.3 180.06C1044.58 180.06 1045.4 179.48 1045.4 178.54C1045.4 177.76 1044.8 177.36 1043.28 176.96C1040.98 176.38 1040 175.52 1040 174.16C1040 172.62 1041.24 171.6 1043.14 171.6C1044.58 171.6 1045.78 172.18 1046.64 173.3L1045.68 174.1C1045.04 173.2 1044.18 172.74 1043.1 172.74C1041.98 172.74 1041.3 173.24 1041.3 174.06C1041.3 174.84 1041.9 175.26 1043.44 175.64C1045.7 176.2 1046.7 177.06 1046.7 178.44C1046.7 180.1 1045.28 181.2 1043.26 181.2Z" fill="black"/>
<path d="M1003.82 216.6H1007.02C1009.7 216.6 1011.62 218.3 1011.62 220.64C1011.62 222.98 1009.7 224.68 1007.02 224.68H1005.22V230H1003.82V216.6ZM1007.02 223.38C1008.94 223.38 1010.22 222.3 1010.22 220.62C1010.22 218.96 1008.94 217.9 1007.02 217.9H1005.22V223.38H1007.02ZM1013.54 220.8H1014.84V222.2C1015.54 221.14 1016.44 220.6 1017.52 220.6C1017.74 220.6 1017.92 220.62 1018.06 220.64L1017.8 222.1C1017.64 222.06 1017.46 222.04 1017.26 222.04C1015.82 222.04 1014.84 222.98 1014.84 224.52V230H1013.54V220.8ZM1019.75 220.8H1021.05V230H1019.75V220.8ZM1020.39 218.92C1019.85 218.92 1019.45 218.5 1019.45 217.96C1019.45 217.42 1019.87 217 1020.41 217C1020.95 217 1021.35 217.42 1021.35 217.96C1021.35 218.5 1020.93 218.92 1020.39 218.92ZM1022.75 220.8H1024.15L1026.85 227.66L1029.67 220.8H1030.99L1026.95 230.4H1026.55L1022.75 220.8ZM1035.22 230.2C1033.36 230.2 1032 229.02 1032 227.34C1032 225.6 1033.54 224.36 1035.56 224.36C1036.68 224.36 1037.48 224.58 1038.3 225.08V224.5C1038.3 222.84 1037.32 221.76 1035.86 221.76C1034.92 221.76 1034.14 222.18 1033.54 223L1032.58 222.2C1033.46 221.16 1034.64 220.6 1035.92 220.6C1038.08 220.6 1039.6 222.18 1039.6 224.34V230H1038.3V228.56C1037.52 229.68 1036.48 230.2 1035.22 230.2ZM1035.46 229.04C1037.12 229.04 1038.3 227.94 1038.3 226.34C1037.42 225.72 1036.66 225.46 1035.52 225.46C1034.16 225.46 1033.3 226.16 1033.3 227.28C1033.3 228.38 1034.12 229.04 1035.46 229.04ZM1046.51 230.2C1043.91 230.2 1041.81 228.04 1041.81 225.4C1041.81 222.76 1043.89 220.6 1046.49 220.6C1048.01 220.6 1049.37 221.32 1050.23 222.5L1049.29 223.28C1048.59 222.34 1047.59 221.82 1046.47 221.82C1044.57 221.82 1043.17 223.36 1043.17 225.38C1043.17 227.46 1044.57 228.98 1046.55 228.98C1047.73 228.98 1048.73 228.48 1049.43 227.54L1050.29 228.24C1049.43 229.44 1048.09 230.2 1046.51 230.2ZM1054.6 230.4L1051.18 220.8H1052.6L1055.32 228.48L1058.18 220.8H1059.5L1054.22 235H1052.9L1054.6 230.4ZM1065.89 216.6H1069.09C1071.77 216.6 1073.69 218.3 1073.69 220.64C1073.69 222.98 1071.77 224.68 1069.09 224.68H1067.29V230H1065.89V216.6ZM1069.09 223.38C1071.01 223.38 1072.29 222.3 1072.29 220.62C1072.29 218.96 1071.01 217.9 1069.09 217.9H1067.29V223.38H1069.09ZM1079.4 230.2C1076.8 230.2 1074.7 228.04 1074.7 225.4C1074.7 222.76 1076.8 220.6 1079.4 220.6C1082 220.6 1084.1 222.76 1084.1 225.4C1084.1 228.04 1082 230.2 1079.4 230.2ZM1079.4 228.98C1081.32 228.98 1082.74 227.46 1082.74 225.4C1082.74 223.34 1081.32 221.82 1079.4 221.82C1077.48 221.82 1076.06 223.34 1076.06 225.4C1076.06 227.46 1077.48 228.98 1079.4 228.98ZM1086.39 215.8H1087.69V230H1086.39V215.8ZM1090.49 220.8H1091.79V230H1090.49V220.8ZM1091.13 218.92C1090.59 218.92 1090.19 218.5 1090.19 217.96C1090.19 217.42 1090.61 217 1091.15 217C1091.69 217 1092.09 217.42 1092.09 217.96C1092.09 218.5 1091.67 218.92 1091.13 218.92ZM1098.79 230.2C1096.19 230.2 1094.09 228.04 1094.09 225.4C1094.09 222.76 1096.17 220.6 1098.77 220.6C1100.29 220.6 1101.65 221.32 1102.51 222.5L1101.57 223.28C1100.87 222.34 1099.87 221.82 1098.75 221.82C1096.85 221.82 1095.45 223.36 1095.45 225.38C1095.45 227.46 1096.85 228.98 1098.83 228.98C1100.01 228.98 1101.01 228.48 1101.71 227.54L1102.57 228.24C1101.71 229.44 1100.37 230.2 1098.79 230.2ZM1106.89 230.4L1103.47 220.8H1104.89L1107.61 228.48L1110.47 220.8H1111.79L1106.51 235H1105.19L1106.89 230.4Z" fill="black"/>
<path d="M1200.06 168.9H1195.66V167.6H1205.86V168.9H1201.46V181H1200.06V168.9ZM1210.51 181.2C1207.71 181.2 1205.77 179.18 1205.77 176.4C1205.77 173.62 1207.67 171.6 1210.31 171.6C1212.81 171.6 1214.67 173.42 1214.67 176.04C1214.67 176.3 1214.65 176.54 1214.61 176.76H1207.15C1207.31 178.76 1208.65 179.96 1210.59 179.96C1211.81 179.96 1212.81 179.5 1213.63 178.56L1214.47 179.26C1213.51 180.54 1212.11 181.2 1210.51 181.2ZM1213.27 175.6C1213.05 173.84 1211.89 172.84 1210.27 172.84C1208.59 172.84 1207.45 173.92 1207.19 175.6H1213.27ZM1216.87 171.8H1218.17V173.2C1218.87 172.14 1219.77 171.6 1220.85 171.6C1221.07 171.6 1221.25 171.62 1221.39 171.64L1221.13 173.1C1220.97 173.06 1220.79 173.04 1220.59 173.04C1219.15 173.04 1218.17 173.98 1218.17 175.52V181H1216.87V171.8ZM1223.08 171.8H1224.38V173.22C1225.12 172.14 1226.06 171.6 1227.24 171.6C1228.6 171.6 1229.72 172.32 1230.26 173.5C1230.96 172.3 1232.06 171.6 1233.44 171.6C1235.52 171.6 1236.98 173.18 1236.98 175.34V181H1235.68V175.52C1235.68 173.86 1234.72 172.8 1233.2 172.8C1231.68 172.8 1230.68 173.84 1230.68 175.52V181H1229.38V175.52C1229.38 173.84 1228.42 172.8 1226.9 172.8C1225.38 172.8 1224.38 173.9 1224.38 175.52V181H1223.08V171.8ZM1242.87 181.2C1241.27 181.2 1239.93 180.54 1238.99 179.18L1239.95 178.36C1240.71 179.5 1241.69 180.06 1242.91 180.06C1244.19 180.06 1245.01 179.48 1245.01 178.54C1245.01 177.76 1244.41 177.36 1242.89 176.96C1240.59 176.38 1239.61 175.52 1239.61 174.16C1239.61 172.62 1240.85 171.6 1242.75 171.6C1244.19 171.6 1245.39 172.18 1246.25 173.3L1245.29 174.1C1244.65 173.2 1243.79 172.74 1242.71 172.74C1241.59 172.74 1240.91 173.24 1240.91 174.06C1240.91 174.84 1241.51 175.26 1243.05 175.64C1245.31 176.2 1246.31 177.06 1246.31 178.44C1246.31 180.1 1244.89 181.2 1242.87 181.2ZM1256.79 181.2C1254.39 181.2 1252.61 179.56 1252.61 177.48C1252.61 175.7 1253.87 174.1 1255.81 173.28C1254.87 172.18 1254.39 171.34 1254.39 170.32C1254.39 168.64 1255.69 167.4 1257.41 167.4C1259.23 167.4 1260.57 168.76 1260.57 170.5H1259.21C1259.21 169.44 1258.53 168.66 1257.43 168.66C1256.41 168.66 1255.75 169.3 1255.75 170.24C1255.75 171.02 1256.19 171.68 1256.93 172.54L1261.05 177.1C1261.69 175.82 1262.05 174.24 1262.05 172.4H1265.13V173.64H1263.27C1263.11 175.32 1262.61 176.82 1261.89 178.02L1263.93 180.3L1262.93 181.2L1261.07 179.14C1259.93 180.44 1258.47 181.2 1256.79 181.2ZM1256.87 180C1258.23 180 1259.41 179.4 1260.31 178.28L1256.67 174.24C1254.99 174.78 1253.97 175.9 1253.97 177.4C1253.97 178.94 1255.09 180 1256.87 180ZM1277.47 181.2C1273.71 181.2 1270.83 178.22 1270.83 174.38C1270.83 170.46 1273.85 167.4 1277.53 167.4C1279.53 167.4 1281.31 168.3 1282.57 169.74L1281.51 170.64C1280.47 169.44 1279.09 168.78 1277.49 168.78C1274.53 168.78 1272.33 171.1 1272.33 174.28C1272.33 177.48 1274.53 179.82 1277.57 179.82C1279.25 179.82 1280.63 179.1 1281.57 177.98L1282.57 178.84C1281.31 180.3 1279.55 181.2 1277.47 181.2ZM1289.06 181.2C1286.46 181.2 1284.36 179.04 1284.36 176.4C1284.36 173.76 1286.46 171.6 1289.06 171.6C1291.66 171.6 1293.76 173.76 1293.76 176.4C1293.76 179.04 1291.66 181.2 1289.06 181.2ZM1289.06 179.98C1290.98 179.98 1292.4 178.46 1292.4 176.4C1292.4 174.34 1290.98 172.82 1289.06 172.82C1287.14 172.82 1285.72 174.34 1285.72 176.4C1285.72 178.46 1287.14 179.98 1289.06 179.98ZM1296.05 171.8H1297.35V173.22C1298.09 172.14 1299.03 171.6 1300.21 171.6C1302.21 171.6 1303.65 173.18 1303.65 175.34V181H1302.35V175.52C1302.35 173.84 1301.39 172.8 1299.87 172.8C1298.35 172.8 1297.35 173.9 1297.35 175.52V181H1296.05V171.8ZM1310.25 181.2C1307.79 181.2 1305.85 179.08 1305.85 176.4C1305.85 173.72 1307.79 171.6 1310.27 171.6C1311.65 171.6 1312.81 172.24 1313.55 173.34V166.8H1314.85V181H1313.55V179.44C1312.81 180.56 1311.63 181.2 1310.25 181.2ZM1310.47 179.98C1312.37 179.98 1313.75 178.4 1313.75 176.4C1313.75 174.38 1312.37 172.8 1310.47 172.8C1308.59 172.8 1307.21 174.38 1307.21 176.4C1307.21 178.44 1308.61 179.98 1310.47 179.98ZM1317.65 171.8H1318.95V181H1317.65V171.8ZM1318.29 169.92C1317.75 169.92 1317.35 169.5 1317.35 168.96C1317.35 168.42 1317.77 168 1318.31 168C1318.85 168 1319.25 168.42 1319.25 168.96C1319.25 169.5 1318.83 169.92 1318.29 169.92ZM1324.92 181.2C1323.4 181.2 1322.46 180.2 1322.46 178.54V172.96H1321.06V171.8H1322.46V169.36H1323.76V171.8H1326.5V172.96H1323.76V178.54C1323.76 179.5 1324.24 180.04 1325.1 180.04C1325.64 180.04 1326.12 179.82 1326.5 179.4L1327.14 180.16C1326.58 180.82 1325.86 181.2 1324.92 181.2ZM1328.83 171.8H1330.13V181H1328.83V171.8ZM1329.47 169.92C1328.93 169.92 1328.53 169.5 1328.53 168.96C1328.53 168.42 1328.95 168 1329.49 168C1330.03 168 1330.43 168.42 1330.43 168.96C1330.43 169.5 1330.01 169.92 1329.47 169.92ZM1337.13 181.2C1334.53 181.2 1332.43 179.04 1332.43 176.4C1332.43 173.76 1334.53 171.6 1337.13 171.6C1339.73 171.6 1341.83 173.76 1341.83 176.4C1341.83 179.04 1339.73 181.2 1337.13 181.2ZM1337.13 179.98C1339.05 179.98 1340.47 178.46 1340.47 176.4C1340.47 174.34 1339.05 172.82 1337.13 172.82C1335.21 172.82 1333.79 174.34 1333.79 176.4C1333.79 178.46 1335.21 179.98 1337.13 179.98ZM1344.12 171.8H1345.42V173.22C1346.16 172.14 1347.1 171.6 1348.28 171.6C1350.28 171.6 1351.72 173.18 1351.72 175.34V181H1350.42V175.52C1350.42 173.84 1349.46 172.8 1347.94 172.8C1346.42 172.8 1345.42 173.9 1345.42 175.52V181H1344.12V171.8ZM1357.59 181.2C1355.99 181.2 1354.65 180.54 1353.71 179.18L1354.67 178.36C1355.43 179.5 1356.41 180.06 1357.63 180.06C1358.91 180.06 1359.73 179.48 1359.73 178.54C1359.73 177.76 1359.13 177.36 1357.61 176.96C1355.31 176.38 1354.33 175.52 1354.33 174.16C1354.33 172.62 1355.57 171.6 1357.47 171.6C1358.91 171.6 1360.11 172.18 1360.97 173.3L1360.01 174.1C1359.37 173.2 1358.51 172.74 1357.43 172.74C1356.31 172.74 1355.63 173.24 1355.63 174.06C1355.63 174.84 1356.23 175.26 1357.77 175.64C1360.03 176.2 1361.03 177.06 1361.03 178.44C1361.03 180.1 1359.61 181.2 1357.59 181.2Z" fill="black"/>
<path d="M522.006 187.6C522.006 188.693 522.143 189.426 522.416 189.797C522.709 190.168 523.266 190.354 524.086 190.354L525.199 190.324L528.393 190.295C529.838 190.295 530.932 189.982 531.674 189.357C532.416 188.732 533.148 187.512 533.871 185.695C534.047 185.246 534.262 185.021 534.516 185.021C535.102 185.021 535.395 185.275 535.395 185.783C535.395 185.92 535.375 186.174 535.336 186.545C535.316 186.799 535.307 187.102 535.307 187.453C535.307 188.586 535.365 189.914 535.482 191.438L535.922 196.975C535.961 197.561 535.98 197.98 535.98 198.234C535.98 198.645 535.717 198.869 535.189 198.908C534.818 198.928 534.584 198.664 534.486 198.117C534.096 196.066 533.441 194.689 532.523 193.986C531.605 193.283 530.004 192.932 527.719 192.932C524.789 192.932 523.1 193.117 522.65 193.488C522.201 193.859 521.977 195.266 521.977 197.707L522.006 200.051V203.508C522.006 206.438 522.514 208.566 523.529 209.895C524.271 210.871 525.756 211.447 527.982 211.623C528.607 211.682 528.92 211.945 528.92 212.414C528.92 212.941 528.705 213.205 528.275 213.205C527.885 213.205 527.318 213.156 526.576 213.059C525.873 212.98 524.457 212.941 522.328 212.941H519.076C517.611 212.941 516.352 213.01 515.297 213.146C513.871 213.342 512.914 213.439 512.426 213.439C511.781 213.439 511.459 213.186 511.459 212.678C511.459 212.307 511.732 212.033 512.279 211.857C513.451 211.467 514.242 210.793 514.652 209.836C515.062 208.879 515.268 207.229 515.268 204.885V180.773C515.268 178.312 514.838 176.711 513.979 175.969C513.002 175.109 511.576 174.631 509.701 174.533C509.193 174.494 508.939 174.26 508.939 173.83C508.939 173.264 509.271 172.98 509.936 172.98C510.15 172.98 510.658 173.01 511.459 173.068C512.631 173.166 513.871 173.215 515.18 173.215L520.219 173.127L527.924 173.098C530.561 173.098 533.256 172.99 536.01 172.775C537.025 172.697 537.777 172.658 538.266 172.658C538.734 172.658 538.998 173.166 539.057 174.182C539.154 175.412 539.213 176.125 539.232 176.32L539.525 178.547C539.584 178.996 539.613 179.377 539.613 179.689C539.613 181.291 539.242 182.092 538.5 182.092C538.09 182.092 537.885 181.818 537.885 181.271V180.275C537.885 179.885 537.836 179.543 537.738 179.25C536.938 176.672 534.359 175.383 530.004 175.383L526.195 175.354L524.994 175.383C523.881 175.383 523.1 175.598 522.65 176.027C522.221 176.438 522.006 177.17 522.006 178.225V187.6ZM563.666 172.189C569.76 172.189 574.682 173.967 578.432 177.521C582.182 181.057 584.057 185.705 584.057 191.467C584.057 197.736 582.123 203.049 578.256 207.404C574.486 211.662 569.291 213.791 562.67 213.791C556.342 213.791 551.283 211.945 547.494 208.254C543.705 204.543 541.811 199.592 541.811 193.4C541.811 190.744 542.289 188.107 543.246 185.49C544.203 182.854 545.502 180.646 547.143 178.869C549.037 176.779 551.439 175.148 554.35 173.977C557.279 172.785 560.385 172.189 563.666 172.189ZM561.527 174.387C557.602 174.387 554.535 175.842 552.328 178.752C550.121 181.662 549.018 185.715 549.018 190.91C549.018 197.043 550.404 202.033 553.178 205.881C555.951 209.709 559.555 211.623 563.988 211.623C567.992 211.623 571.195 210.041 573.598 206.877C576 203.693 577.201 199.445 577.201 194.133C577.201 191.066 576.645 188.078 575.531 185.168C574.418 182.238 572.934 179.914 571.078 178.195C568.383 175.656 565.199 174.387 561.527 174.387ZM608.607 172.219C612.26 172.219 615.443 173 618.158 174.562L620.092 175.676C620.482 175.91 620.834 176.027 621.146 176.027C621.537 176.027 621.83 175.871 622.025 175.559L622.641 174.65C622.738 174.494 622.914 174.416 623.168 174.416C623.773 174.416 624.076 175.051 624.076 176.32L624.105 178.459V181.125L624.34 183.352L624.604 184.67C624.721 185.314 624.779 185.891 624.779 186.398C624.779 187.141 624.506 187.512 623.959 187.512C623.646 187.512 623.441 187.277 623.344 186.809C623.188 186.066 622.641 184.934 621.703 183.41C620.785 181.867 619.906 180.646 619.066 179.748C615.668 176.076 611.889 174.24 607.729 174.24C604.037 174.24 601.039 175.764 598.734 178.811C596.43 181.838 595.277 185.773 595.277 190.617C595.277 196.945 597.162 201.994 600.932 205.764C603.764 208.576 606.85 209.982 610.189 209.982C612.162 209.982 614.252 209.514 616.459 208.576C618.666 207.619 620.404 206.438 621.674 205.031L623.578 202.951C623.852 202.639 624.115 202.473 624.369 202.453C624.74 202.434 624.926 202.648 624.926 203.098C624.926 203.898 624.154 205.178 622.611 206.936C618.568 211.506 613.578 213.791 607.641 213.791C601.898 213.791 597.23 211.955 593.637 208.283C590.062 204.611 588.275 199.836 588.275 193.957C588.275 190.734 588.949 187.58 590.297 184.494C591.645 181.408 593.441 178.898 595.688 176.965C599.379 173.801 603.686 172.219 608.607 172.219ZM659.438 172.629C659.574 172.609 659.799 172.639 660.111 172.717C660.443 172.775 661.215 172.834 662.426 172.893L665.531 173.039L668.402 172.922C669.379 172.844 670.238 172.756 670.98 172.658C671.332 172.619 671.654 172.6 671.947 172.6C672.475 172.6 672.738 172.854 672.738 173.361C672.738 173.752 672.494 173.986 672.006 174.064L670.893 174.27C669.369 174.523 668.607 176.154 668.607 179.162L668.637 181.711L668.578 185.314C668.578 190.959 668.295 195.51 667.729 198.967C667.182 202.424 666.293 205.09 665.062 206.965C662.113 211.516 657.113 213.791 650.062 213.791C645.082 213.791 641.215 212.854 638.461 210.979C634.73 208.42 632.865 203.459 632.865 196.096L633.188 184.758L633.1 179.426C633.1 178.098 632.963 177.16 632.689 176.613C632.436 176.066 631.898 175.598 631.078 175.207C630.121 174.758 629.047 174.445 627.855 174.27C627.094 174.152 626.713 173.859 626.713 173.391C626.713 172.883 627.045 172.629 627.709 172.629C627.924 172.629 628.324 172.658 628.91 172.717C631.391 172.951 633.305 173.068 634.652 173.068C636.566 173.068 638.686 172.961 641.01 172.746C641.947 172.668 642.621 172.629 643.031 172.629C644.047 172.629 644.555 172.912 644.555 173.479C644.555 173.791 644.477 174.006 644.32 174.123C644.164 174.24 643.793 174.357 643.207 174.475C642.016 174.709 641.215 175.158 640.805 175.822C640.395 176.467 640.141 177.736 640.043 179.631L639.574 187.014L639.633 192.199C639.633 196.926 639.877 200.295 640.365 202.307C640.873 204.299 641.908 206.008 643.471 207.434C645.834 209.602 648.861 210.686 652.553 210.686C656.322 210.686 659.369 209.572 661.693 207.346C663.256 205.842 664.359 203.645 665.004 200.754C665.668 197.863 666 193.713 666 188.303V185.93L665.854 179.924C665.736 178.107 665.17 176.701 664.154 175.705C663.139 174.689 661.762 174.182 660.023 174.182C659.262 174.182 658.881 173.898 658.881 173.332C658.881 172.883 659.066 172.648 659.438 172.629ZM687.797 172.219C689.633 172.219 691.43 172.57 693.188 173.273L695.15 174.094C696.029 174.445 696.654 174.621 697.025 174.621C697.299 174.621 697.582 174.553 697.875 174.416L698.988 173.859C699.145 173.781 699.301 173.742 699.457 173.742C699.867 173.742 700.072 174.064 700.072 174.709L700.014 177.082C700.014 177.453 700.033 177.805 700.072 178.137L700.453 181.008L700.746 183.674C700.785 183.908 700.805 184.104 700.805 184.26C700.805 185.1 700.561 185.52 700.072 185.52C699.721 185.52 699.467 185.148 699.311 184.406C698.744 181.672 697.318 179.309 695.033 177.316C692.748 175.324 690.326 174.328 687.768 174.328C686.01 174.328 684.477 174.924 683.168 176.115C681.859 177.307 681.205 178.713 681.205 180.334C681.205 181.838 681.781 183.137 682.934 184.23C683.676 184.934 685.99 186.076 689.877 187.658C694.506 189.553 697.572 191.408 699.076 193.225C700.854 195.412 701.742 198.049 701.742 201.135C701.742 204.533 700.512 207.492 698.051 210.012C695.59 212.531 692.709 213.791 689.408 213.791C688.061 213.791 685.922 213.332 682.992 212.414C681.625 211.965 680.619 211.672 679.975 211.535C679.076 211.359 678.549 211.193 678.393 211.037C678.256 210.861 678.139 210.354 678.041 209.514C677.943 208.596 677.65 207.268 677.162 205.529C676.42 202.873 676.049 201.174 676.049 200.432C676.049 199.494 676.352 199.025 676.957 199.025C677.23 199.025 677.426 199.26 677.543 199.729C678.5 203.088 680.16 205.91 682.523 208.195C684.887 210.48 687.338 211.623 689.877 211.623C691.85 211.623 693.607 210.871 695.15 209.367C696.713 207.844 697.494 206.105 697.494 204.152C697.494 202.609 697.084 201.34 696.264 200.344C695.463 199.348 694.066 198.41 692.074 197.531L687.621 195.539C683.422 193.664 680.57 191.896 679.066 190.236C677.562 188.557 676.811 186.33 676.811 183.557C676.811 180.334 677.855 177.639 679.945 175.471C682.055 173.303 684.672 172.219 687.797 172.219Z" fill="#A60028"/>
<path d="M375.59 140.066C375.59 140.796 375.681 141.284 375.863 141.531C376.059 141.779 376.43 141.902 376.977 141.902L377.719 141.883L379.848 141.863C380.811 141.863 381.54 141.655 382.035 141.238C382.53 140.822 383.018 140.008 383.5 138.797C383.617 138.497 383.76 138.348 383.93 138.348C384.32 138.348 384.516 138.517 384.516 138.855C384.516 138.947 384.503 139.116 384.477 139.363C384.464 139.533 384.457 139.734 384.457 139.969C384.457 140.724 384.496 141.609 384.574 142.625L384.867 146.316C384.893 146.707 384.906 146.987 384.906 147.156C384.906 147.43 384.73 147.579 384.379 147.605C384.132 147.618 383.975 147.443 383.91 147.078C383.65 145.711 383.214 144.793 382.602 144.324C381.99 143.855 380.922 143.621 379.398 143.621C377.445 143.621 376.319 143.745 376.02 143.992C375.72 144.24 375.57 145.177 375.57 146.805L375.59 148.367V150.672C375.59 152.625 375.928 154.044 376.605 154.93C377.1 155.581 378.09 155.965 379.574 156.082C379.991 156.121 380.199 156.297 380.199 156.609C380.199 156.961 380.056 157.137 379.77 157.137C379.509 157.137 379.132 157.104 378.637 157.039C378.168 156.987 377.224 156.961 375.805 156.961H373.637C372.66 156.961 371.82 157.007 371.117 157.098C370.167 157.228 369.529 157.293 369.203 157.293C368.773 157.293 368.559 157.124 368.559 156.785C368.559 156.538 368.741 156.355 369.105 156.238C369.887 155.978 370.414 155.529 370.688 154.891C370.961 154.253 371.098 153.152 371.098 151.59V135.516C371.098 133.875 370.811 132.807 370.238 132.312C369.587 131.74 368.637 131.421 367.387 131.355C367.048 131.329 366.879 131.173 366.879 130.887C366.879 130.509 367.1 130.32 367.543 130.32C367.686 130.32 368.025 130.34 368.559 130.379C369.34 130.444 370.167 130.477 371.039 130.477L374.398 130.418L379.535 130.398C381.293 130.398 383.09 130.327 384.926 130.184C385.603 130.132 386.104 130.105 386.43 130.105C386.742 130.105 386.918 130.444 386.957 131.121C387.022 131.941 387.061 132.417 387.074 132.547L387.27 134.031C387.309 134.331 387.328 134.585 387.328 134.793C387.328 135.861 387.081 136.395 386.586 136.395C386.312 136.395 386.176 136.212 386.176 135.848V135.184C386.176 134.923 386.143 134.695 386.078 134.5C385.544 132.781 383.826 131.922 380.922 131.922L378.383 131.902L377.582 131.922C376.84 131.922 376.319 132.065 376.02 132.352C375.733 132.625 375.59 133.113 375.59 133.816V140.066ZM397.152 150.906L397.309 152.859C397.465 153.862 397.842 154.63 398.441 155.164C399.053 155.698 399.848 155.965 400.824 155.965C401.462 155.965 401.781 156.16 401.781 156.551C401.781 156.928 401.358 157.117 400.512 157.117C400.147 157.117 399.626 157.085 398.949 157.02C397.257 156.837 395.883 156.746 394.828 156.746C393.526 156.746 392.497 156.818 391.742 156.961C391.091 157.091 390.622 157.156 390.336 157.156C390.049 157.156 389.867 157.02 389.789 156.746L389.75 156.59L390.316 156.141C391.254 155.802 391.872 155.392 392.172 154.91C392.484 154.415 392.641 153.602 392.641 152.469L392.66 150.73V135.164C392.66 133.966 392.452 133.113 392.035 132.605C391.618 132.098 390.857 131.759 389.75 131.59C389.086 131.486 388.656 131.388 388.461 131.297C388.279 131.193 388.188 131.023 388.188 130.789C388.188 130.424 388.344 130.249 388.656 130.262C388.891 130.275 389.242 130.327 389.711 130.418C390.18 130.522 390.967 130.574 392.074 130.574C392.803 130.574 393.708 130.529 394.789 130.438L396.215 130.32C397.556 130.216 398.585 130.164 399.301 130.164C399.73 130.164 399.945 130.32 399.945 130.633C399.945 130.867 399.913 131.023 399.848 131.102C399.783 131.18 399.62 131.238 399.359 131.277C398.422 131.434 397.816 131.694 397.543 132.059C397.283 132.423 397.152 133.165 397.152 134.285V150.906ZM413.559 134.734L423.91 146.336L424.574 147.078C425.46 148.068 426.052 148.562 426.352 148.562C426.625 148.562 426.775 148.165 426.801 147.371C426.918 144.493 426.977 141.753 426.977 139.148C426.977 136.089 426.664 134.018 426.039 132.938C425.427 131.857 424.216 131.251 422.406 131.121C421.977 131.095 421.762 130.945 421.762 130.672C421.762 130.333 421.951 130.164 422.328 130.164C422.797 130.164 423.552 130.229 424.594 130.359C425.271 130.438 425.831 130.477 426.273 130.477C427.172 130.477 428.598 130.353 430.551 130.105C430.811 130.079 431 130.066 431.117 130.066C431.534 130.066 431.742 130.249 431.742 130.613C431.742 130.939 431.534 131.134 431.117 131.199C429.438 131.512 428.598 133.003 428.598 135.672V136.629L428.324 148.836L428.246 150.516L428.227 152.684L428.246 154.168L428.324 156.609C428.324 156.974 428.194 157.15 427.934 157.137C427.699 157.124 427.458 156.98 427.211 156.707L409.418 136.961C409.105 136.622 408.891 136.453 408.773 136.453C408.461 136.453 408.305 136.746 408.305 137.332L408.285 137.898V145.477C408.285 149.526 408.487 152.234 408.891 153.602C409.32 155.06 410.59 155.887 412.699 156.082C413.09 156.121 413.285 156.284 413.285 156.57C413.285 156.961 413.083 157.156 412.68 157.156C412.523 157.156 412.27 157.13 411.918 157.078C410.824 156.896 409.613 156.805 408.285 156.805C406.97 156.805 405.798 156.902 404.77 157.098C404.314 157.176 403.982 157.215 403.773 157.215C403.422 157.215 403.246 157.059 403.246 156.746C403.246 156.486 403.435 156.303 403.812 156.199C404.763 155.926 405.453 155.366 405.883 154.52C406.326 153.66 406.547 152.43 406.547 150.828L406.684 146.18V137.703C406.684 133.693 405.206 131.583 402.25 131.375C401.846 131.349 401.645 131.186 401.645 130.887C401.645 130.522 401.866 130.34 402.309 130.34L403.656 130.398L404.477 130.379C405.492 130.379 406.579 130.32 407.738 130.203C408.168 130.164 408.526 130.145 408.812 130.145C409.216 130.145 409.535 130.236 409.77 130.418C410.004 130.587 410.499 131.121 411.254 132.02L412.602 133.602C413.135 134.227 413.454 134.604 413.559 134.734ZM437.152 135.477C437.152 134.227 436.807 133.263 436.117 132.586C435.427 131.909 434.451 131.57 433.188 131.57C432.784 131.57 432.582 131.401 432.582 131.062C432.582 130.828 432.667 130.678 432.836 130.613C433.005 130.535 433.376 130.496 433.949 130.496L436.918 130.535C437.595 130.535 438.201 130.522 438.734 130.496C439.555 130.444 440.681 130.353 442.113 130.223C444.04 130.04 445.57 129.949 446.703 129.949C451.117 129.949 454.652 131.082 457.309 133.348C459.978 135.6 461.312 138.602 461.312 142.352C461.312 147.182 459.522 151.03 455.941 153.895C453.311 155.991 450.349 157.039 447.055 157.039C446.508 157.039 445.408 156.987 443.754 156.883C442.816 156.831 441.853 156.805 440.863 156.805C438.546 156.805 437.003 156.87 436.234 157C435.635 157.104 435.232 157.156 435.023 157.156C434.724 157.156 434.574 156.967 434.574 156.59C434.574 156.329 434.737 156.167 435.062 156.102C435.87 155.945 436.417 155.613 436.703 155.105C437.003 154.598 437.152 153.725 437.152 152.488V135.477ZM441.645 134.422V151.57L441.879 153.348C442.309 154.858 443.917 155.613 446.703 155.613C449.724 155.613 452.12 154.572 453.891 152.488C455.661 150.392 456.547 147.566 456.547 144.012C456.547 140.288 455.479 137.254 453.344 134.91C451.221 132.566 448.474 131.395 445.102 131.395C443.721 131.395 442.777 131.577 442.27 131.941C441.853 132.228 441.645 133.055 441.645 134.422ZM487.27 146.531V152.293L487.367 153.621C487.589 155.092 488.891 155.893 491.273 156.023C491.69 156.049 491.898 156.232 491.898 156.57C491.898 156.948 491.605 157.137 491.02 157.137C490.707 157.137 490.368 157.117 490.004 157.078L487.23 156.844C486.723 156.792 485.961 156.766 484.945 156.766C482.51 156.766 480.889 156.837 480.082 156.98C479.548 157.072 479.158 157.117 478.91 157.117C478.611 157.117 478.461 156.902 478.461 156.473C478.461 156.238 478.643 156.095 479.008 156.043C480.466 155.809 481.449 155.34 481.957 154.637C482.478 153.934 482.738 152.71 482.738 150.965V147.234C482.738 146.362 482.452 145.457 481.879 144.52C481.202 143.4 480.453 142.059 479.633 140.496L476.664 134.91C475.479 132.671 474.092 131.473 472.504 131.316C472.022 131.277 471.781 131.095 471.781 130.77C471.781 130.366 471.964 130.164 472.328 130.164C472.654 130.164 473.161 130.203 473.852 130.281C475.258 130.438 476.534 130.516 477.68 130.516C478.734 130.516 479.809 130.457 480.902 130.34C481.71 130.262 482.25 130.223 482.523 130.223C483.07 130.223 483.344 130.385 483.344 130.711C483.344 130.984 483.122 131.167 482.68 131.258C481.677 131.453 481.176 131.889 481.176 132.566C481.176 133.113 481.651 134.311 482.602 136.16L484.125 139.129C484.75 140.327 485.134 141.082 485.277 141.395C485.72 142.306 486.15 142.762 486.566 142.762C486.983 142.762 487.53 142.098 488.207 140.77C488.376 140.431 488.812 139.637 489.516 138.387C490.948 135.809 491.664 134.194 491.664 133.543C491.664 132.996 491.345 132.482 490.707 132C490.069 131.518 489.34 131.238 488.52 131.16C488.103 131.108 487.895 130.952 487.895 130.691C487.895 130.288 488.064 130.086 488.402 130.086C488.767 130.086 489.099 130.105 489.398 130.145L490.688 130.32C491.195 130.385 491.846 130.418 492.641 130.418C493.07 130.418 493.546 130.398 494.066 130.359L495.707 130.262C496.124 130.236 496.638 130.223 497.25 130.223C497.602 130.223 497.777 130.372 497.777 130.672C497.777 130.945 497.543 131.134 497.074 131.238C496.098 131.473 495.303 131.909 494.691 132.547C494.092 133.185 493.331 134.396 492.406 136.18C490.753 139.37 489.236 142.052 487.855 144.227C487.582 144.63 487.413 144.956 487.348 145.203C487.296 145.451 487.27 145.893 487.27 146.531ZM511.137 129.793C515.199 129.793 518.48 130.978 520.98 133.348C523.48 135.704 524.73 138.803 524.73 142.645C524.73 146.824 523.441 150.366 520.863 153.27C518.35 156.108 514.887 157.527 510.473 157.527C506.254 157.527 502.882 156.297 500.355 153.836C497.829 151.362 496.566 148.061 496.566 143.934C496.566 142.163 496.885 140.405 497.523 138.66C498.161 136.902 499.027 135.431 500.121 134.246C501.384 132.853 502.986 131.766 504.926 130.984C506.879 130.19 508.949 129.793 511.137 129.793ZM509.711 131.258C507.094 131.258 505.049 132.228 503.578 134.168C502.107 136.108 501.371 138.81 501.371 142.273C501.371 146.362 502.296 149.689 504.145 152.254C505.993 154.806 508.396 156.082 511.352 156.082C514.021 156.082 516.156 155.027 517.758 152.918C519.359 150.796 520.16 147.964 520.16 144.422C520.16 142.378 519.789 140.385 519.047 138.445C518.305 136.492 517.315 134.943 516.078 133.797C514.281 132.104 512.159 131.258 509.711 131.258ZM548.07 130.086C548.161 130.073 548.311 130.092 548.52 130.145C548.741 130.184 549.255 130.223 550.062 130.262L552.133 130.359L554.047 130.281C554.698 130.229 555.271 130.171 555.766 130.105C556 130.079 556.215 130.066 556.41 130.066C556.762 130.066 556.938 130.236 556.938 130.574C556.938 130.835 556.775 130.991 556.449 131.043L555.707 131.18C554.691 131.349 554.184 132.436 554.184 134.441L554.203 136.141L554.164 138.543C554.164 142.306 553.975 145.34 553.598 147.645C553.233 149.949 552.641 151.727 551.82 152.977C549.854 156.01 546.521 157.527 541.82 157.527C538.5 157.527 535.922 156.902 534.086 155.652C531.599 153.947 530.355 150.639 530.355 145.73L530.57 138.172L530.512 134.617C530.512 133.732 530.421 133.107 530.238 132.742C530.069 132.378 529.711 132.065 529.164 131.805C528.526 131.505 527.81 131.297 527.016 131.18C526.508 131.102 526.254 130.906 526.254 130.594C526.254 130.255 526.475 130.086 526.918 130.086C527.061 130.086 527.328 130.105 527.719 130.145C529.372 130.301 530.648 130.379 531.547 130.379C532.823 130.379 534.236 130.307 535.785 130.164C536.41 130.112 536.859 130.086 537.133 130.086C537.81 130.086 538.148 130.275 538.148 130.652C538.148 130.861 538.096 131.004 537.992 131.082C537.888 131.16 537.641 131.238 537.25 131.316C536.456 131.473 535.922 131.772 535.648 132.215C535.375 132.645 535.206 133.491 535.141 134.754L534.828 139.676L534.867 143.133C534.867 146.284 535.03 148.53 535.355 149.871C535.694 151.199 536.384 152.339 537.426 153.289C539.001 154.734 541.02 155.457 543.48 155.457C545.993 155.457 548.025 154.715 549.574 153.23C550.616 152.228 551.352 150.763 551.781 148.836C552.224 146.909 552.445 144.142 552.445 140.535V138.953L552.348 134.949C552.27 133.738 551.892 132.801 551.215 132.137C550.538 131.46 549.62 131.121 548.461 131.121C547.953 131.121 547.699 130.932 547.699 130.555C547.699 130.255 547.823 130.099 548.07 130.086ZM567.367 149.402C567.367 151.876 567.595 153.556 568.051 154.441C568.507 155.314 569.405 155.815 570.746 155.945C571.293 155.997 571.566 156.206 571.566 156.57C571.566 156.935 571.345 157.117 570.902 157.117C570.759 157.117 570.492 157.098 570.102 157.059C568.982 156.967 567.901 156.922 566.859 156.922C565.987 156.922 565.212 156.948 564.535 157L562.895 157.156L561.586 157.273C561.221 157.312 560.967 157.332 560.824 157.332C560.355 157.332 560.121 157.156 560.121 156.805C560.121 156.518 560.251 156.336 560.512 156.258C561.397 155.984 562.009 155.62 562.348 155.164C562.686 154.695 562.855 153.986 562.855 153.035V151.18L562.875 150.418V136.277C562.875 134.715 562.68 133.667 562.289 133.133C561.651 132.26 560.609 131.733 559.164 131.551C558.63 131.473 558.363 131.251 558.363 130.887C558.363 130.522 558.546 130.34 558.91 130.34C559.053 130.34 559.288 130.359 559.613 130.398C560.616 130.503 561.716 130.555 562.914 130.555C564.229 130.555 565.824 130.483 567.699 130.34C569.9 130.171 571.417 130.086 572.25 130.086C574.724 130.086 576.775 130.763 578.402 132.117C580.03 133.458 580.844 135.151 580.844 137.195C580.844 138.484 580.479 139.656 579.75 140.711C579.034 141.766 578.044 142.566 576.781 143.113C576.521 143.217 576.397 143.348 576.41 143.504C576.423 143.634 576.488 143.79 576.605 143.973C576.723 144.155 576.898 144.461 577.133 144.891L578.871 147.977L580.883 151.551C581.573 152.762 582.185 153.602 582.719 154.07C583.266 154.539 583.904 154.773 584.633 154.773C584.932 154.773 585.212 154.747 585.473 154.695C585.629 154.656 585.772 154.637 585.902 154.637C586.137 154.637 586.254 154.786 586.254 155.086C586.254 155.464 585.72 155.893 584.652 156.375C583.598 156.857 582.66 157.098 581.84 157.098C580.499 157.098 579.262 156.44 578.129 155.125C576.996 153.81 575.525 151.323 573.715 147.664C573.012 146.219 572.432 145.307 571.977 144.93C571.521 144.539 570.779 144.344 569.75 144.344H568.539L567.66 144.5C567.465 144.604 567.367 144.917 567.367 145.438V149.402ZM567.367 134.129V140.887C567.367 141.72 567.471 142.247 567.68 142.469C567.901 142.69 568.415 142.801 569.223 142.801C571.54 142.801 572.973 142.762 573.52 142.684C574.079 142.592 574.6 142.326 575.082 141.883C576.033 141.023 576.508 139.839 576.508 138.328C576.508 136.362 575.863 134.741 574.574 133.465C573.298 132.176 571.671 131.531 569.691 131.531C568.806 131.531 568.194 131.72 567.855 132.098C567.53 132.462 567.367 133.139 567.367 134.129Z" fill="black"/>
<line x1="746" y1="126.814" x2="766" y2="126.814" stroke="black"/>
<line x1="745.003" y1="175.5" x2="766" y2="175.63" stroke="black"/>
<line x1="745" y1="224.5" x2="765.997" y2="224.5" stroke="black"/>
<line x1="970" y1="126.814" x2="990" y2="126.814" stroke="black"/>
<line x1="970" y1="176.814" x2="990" y2="176.814" stroke="black"/>
<line x1="970" y1="224.685" x2="990" y2="224.685" stroke="black"/>
<line x1="1167" y1="175.814" x2="1187" y2="175.814" stroke="black"/>
<defs>
<filter id="filter0_d_589_7" x="-36.5" y="0.5" width="1804" height="356" filterUnits="userSpaceOnUse" color-interpolation-filters="sRGB">
<feFlood flood-opacity="0" result="BackgroundImageFix"/>
<feColorMatrix in="SourceAlpha" type="matrix" values="0 0 0 0 0 0 0 0 0 0 0 0 0 0 0 0 0 0 127 0" result="hardAlpha"/>
<feMorphology radius="14" operator="dilate" in="SourceAlpha" result="effect1_dropShadow_589_7"/>
<feOffset dx="1" dy="4"/>
<feGaussianBlur stdDeviation="12.25"/>
<feComposite in2="hardAlpha" operator="out"/>
<feColorMatrix type="matrix" values="0 0 0 0 0 0 0 0 0 0 0 0 0 0 0 0 0 0 0.25 0"/>
<feBlend mode="normal" in2="BackgroundImageFix" result="effect1_dropShadow_589_7"/>
<feBlend mode="normal" in="SourceGraphic" in2="effect1_dropShadow_589_7" result="shape"/>
</filter>
</defs>
</svg>
