<svg width="742" height="343" viewBox="0 0 742 343" fill="none" xmlns="http://www.w3.org/2000/svg">
<g clip-path="url(#clip0_866_62)">
<g filter="url(#filter0_d_866_62)">
<path d="M359.632 251.55L353.24 287.998H350.52L332.84 254.27H328.624L315.296 330.566L324.136 339.95L323.592 342.67H272.592L273.136 339.95L285.24 330.566L298.568 254.27H294.488L264.976 287.998H262.256L268.648 251.55H359.632ZM437.494 333.966C439.126 333.966 440.713 333.331 442.254 332.062L442.934 332.878C438.219 340.766 431.057 344.71 421.446 344.71C419.633 344.71 417.865 344.483 416.142 344.03C414.419 343.577 412.606 342.806 410.702 341.718C408.889 340.539 407.438 338.726 406.35 336.278C405.262 333.83 404.763 330.838 404.854 327.302H404.31C401.137 332.833 397.555 337.139 393.566 340.222C389.577 343.214 384.545 344.71 378.47 344.71C371.851 344.71 366.955 342.625 363.782 338.454C360.699 334.283 359.929 327.937 361.47 319.414L367.318 285.686L359.974 276.302L360.518 273.582H398.87L390.846 318.734C389.486 326.078 391.073 329.75 395.606 329.75C398.054 329.75 400.23 328.571 402.134 326.214C404.129 323.766 405.489 320.955 406.214 317.782L413.966 273.582H443.206L433.958 326.622C433.595 328.798 433.731 330.566 434.366 331.926C435.091 333.286 436.134 333.966 437.494 333.966ZM483.186 333.966C484.818 333.966 486.405 333.331 487.946 332.062L488.626 332.878C483.911 340.766 476.749 344.71 467.138 344.71C465.143 344.71 463.194 344.438 461.29 343.894C459.386 343.35 457.437 342.353 455.442 340.902C453.447 339.451 451.997 337.185 451.09 334.102C450.274 330.929 450.274 327.075 451.09 322.542L461.562 263.79L454.082 254.27L454.626 251.55H492.978L479.65 326.622C479.287 328.798 479.423 330.566 480.058 331.926C480.783 333.286 481.826 333.966 483.186 333.966ZM516.889 344.71C509.636 344.71 503.833 342.353 499.481 337.638C495.22 332.833 493.089 326.033 493.089 317.238C493.089 304.273 497.532 293.438 506.417 284.734C515.303 275.939 526.183 271.542 539.057 271.542C544.044 271.542 548.396 272.313 552.113 273.854C555.831 275.395 559.503 277.934 563.129 281.47L580.537 271.542H583.529L573.737 326.622C573.375 328.889 573.511 330.702 574.145 332.062C574.871 333.331 575.959 333.966 577.409 333.966C578.951 333.966 580.492 333.331 582.033 332.062L582.713 332.878C578.089 340.766 571.108 344.71 561.769 344.71C556.692 344.71 552.431 343.35 548.985 340.63C545.54 337.819 544.135 332.923 544.769 325.942L544.905 324.582C542.367 330.203 538.649 334.963 533.753 338.862C528.857 342.761 523.236 344.71 516.889 344.71ZM531.849 331.382C535.295 331.382 538.287 329.433 540.825 325.534C543.364 321.635 545.359 316.241 546.809 309.35L547.081 308.534C547.716 305.27 548.26 302.414 548.713 299.966C549.167 297.518 549.529 294.889 549.801 292.078C550.164 289.267 550.255 286.91 550.073 285.006C549.983 283.011 549.711 281.153 549.257 279.43C548.804 277.707 548.033 276.438 546.945 275.622C545.857 274.715 544.452 274.262 542.729 274.262C539.193 274.262 535.839 276.846 532.665 282.014C529.583 287.091 527.225 292.849 525.593 299.286C524.052 305.633 523.281 311.254 523.281 316.15C523.281 326.305 526.137 331.382 531.849 331.382ZM590.705 295.206C598.955 291.761 604.486 289.041 607.297 287.046C610.198 284.961 612.51 282.513 614.233 279.702L614.097 279.294C611.83 279.929 610.062 280.246 608.793 280.246C604.622 280.246 601.131 278.977 598.321 276.438C595.51 273.899 594.105 270.545 594.105 266.374C594.105 261.75 595.601 257.897 598.593 254.814C601.585 251.641 605.438 250.054 610.153 250.054C614.958 250.054 618.857 251.595 621.849 254.678C624.841 257.67 626.382 261.387 626.473 265.83C626.473 269.366 625.793 272.63 624.433 275.622C623.163 278.614 621.577 281.107 619.673 283.102C617.769 285.097 615.139 287.046 611.785 288.95C608.43 290.763 605.302 292.259 602.401 293.438C599.59 294.526 595.963 295.795 591.521 297.246L590.705 295.206ZM670.852 298.878C676.02 301.598 679.783 304.499 682.14 307.582C684.588 310.665 685.812 314.699 685.812 319.686C685.812 323.766 684.951 327.393 683.228 330.566C681.596 333.649 679.511 336.051 676.972 337.774C674.524 339.497 671.623 340.902 668.268 341.99C664.913 343.078 661.831 343.803 659.02 344.166C656.209 344.529 653.353 344.71 650.452 344.71C647.369 344.71 644.332 344.438 641.34 343.894C638.348 343.441 636.081 342.987 634.54 342.534C633.089 342.081 630.868 341.31 627.876 340.222C624.884 339.134 623.116 338.499 622.572 338.318L626.924 315.198H629.236L648.956 341.718H649.5C654.94 341.718 657.66 338.726 657.66 332.742C657.66 328.118 655.393 324.582 650.86 322.134L644.74 318.734C639.209 315.742 635.129 312.75 632.5 309.758C629.871 306.675 628.556 302.55 628.556 297.382C628.556 292.758 629.644 288.723 631.82 285.278C633.996 281.742 636.852 279.022 640.388 277.118C643.924 275.214 647.551 273.809 651.268 272.902C654.985 271.995 658.748 271.542 662.556 271.542C672.348 271.542 681.777 273.627 690.844 277.798L686.9 299.966H684.452L664.596 274.126H663.644C658.385 274.126 655.756 277.617 655.756 284.598C655.756 288.769 658.385 292.259 663.644 295.07L670.852 298.878Z" fill="white"/>
</g>
<g filter="url(#filter1_d_866_62)">
<path d="M17.728 280.35H22.72L30.496 333.918L59.104 280.35H60.832L70.528 333.918L97.312 280.35H102.592L69.472 346.59H67.84L58.048 292.254L29.056 346.59H27.424L17.728 280.35ZM115.104 280.35H120.096L108.768 344.67H103.776L115.104 280.35ZM151.89 284.958H130.482L131.346 280.35H179.154L178.29 284.958H156.882L146.418 344.67H141.426L151.89 284.958ZM190.948 280.35H195.94L190.66 309.918H227.524L232.804 280.35H237.796L226.468 344.67H221.476L226.756 314.526H189.892L184.612 344.67H179.62L190.948 280.35Z" fill="white"/>
</g>
<g filter="url(#filter2_d_866_62)">
<path d="M1.2 151.35H15.216V202.518H37.488V215.67H1.2V151.35ZM49.6063 151.35H86.3743V164.502H63.6223V176.31H80.2303V189.462H63.6223V202.518H86.8543V215.67H49.6063V151.35ZM114.265 164.502H95.545V151.35H147.001V164.502H128.281V215.67H114.265V164.502ZM153.818 169.782L157.85 148.182L168.506 150.87L161.978 171.798L153.818 169.782ZM194.949 217.398C184.965 217.398 176.805 212.79 171.909 204.342L181.701 196.182C185.061 202.134 189.381 205.11 194.853 205.11C199.749 205.11 203.013 202.518 203.013 198.678C203.013 195.126 200.517 192.918 192.837 189.558C180.933 184.278 175.749 178.134 175.749 169.206C175.749 157.878 184.389 150.006 196.677 150.006C204.837 150.006 211.653 153.462 217.317 160.47L208.005 168.918C204.453 164.214 200.997 162.006 196.677 162.006C192.453 162.006 189.765 164.31 189.765 167.862C189.765 171.798 193.125 173.91 199.749 176.886C211.941 182.262 217.029 188.598 217.029 197.526C217.029 209.334 208.005 217.398 194.949 217.398ZM253.013 151.35H278.453C297.557 151.35 311.861 165.078 311.861 183.51C311.861 201.846 297.557 215.67 278.453 215.67H253.013V151.35ZM278.549 202.518C289.205 202.518 297.077 194.454 297.077 183.51C297.077 172.566 289.205 164.502 278.549 164.502H267.029V202.518H278.549ZM353.764 217.014C334.948 217.014 320.548 202.326 320.548 183.51C320.548 164.502 334.948 150.006 353.764 150.006C372.58 150.006 386.98 164.502 386.98 183.51C386.98 202.326 372.58 217.014 353.764 217.014ZM353.764 203.382C364.42 203.382 372.196 194.838 372.196 183.51C372.196 172.278 364.42 163.638 353.764 163.638C343.108 163.638 335.332 172.278 335.332 183.51C335.332 194.742 343.108 203.382 353.764 203.382Z" fill="white"/>
</g>
<g filter="url(#filter3_d_866_62)">
<path d="M455.624 156.182C453.64 158.102 451.112 159.062 448.04 159.062C444.968 159.062 442.44 158.102 440.456 156.182C438.472 154.198 437.48 151.734 437.48 148.79C437.48 145.974 438.472 143.574 440.456 141.59C442.44 139.542 444.968 138.518 448.04 138.518C451.112 138.518 453.64 139.542 455.624 141.59C457.672 143.574 458.696 145.974 458.696 148.79C458.696 151.734 457.672 154.198 455.624 156.182ZM455.912 162.902L449.288 200.342C449.032 201.878 449.128 203.126 449.576 204.086C450.088 205.046 450.824 205.526 451.784 205.526C452.936 205.526 454.056 205.078 455.144 204.182L455.624 204.758C452.296 210.326 447.24 213.11 440.456 213.11C439.048 213.11 437.672 212.918 436.328 212.534C434.984 212.15 433.608 211.446 432.2 210.422C430.792 209.398 429.768 207.798 429.128 205.622C428.552 203.382 428.552 200.662 429.128 197.462L433.736 171.542L428.456 164.822L428.84 162.902H455.912ZM488.224 164.822L482.656 196.214C482.336 198.198 482.528 199.798 483.232 201.014C483.936 202.166 485.056 202.742 486.592 202.742C488.576 202.742 490.752 202.006 493.12 200.534L493.6 201.11C489.632 209.11 483.744 213.11 475.936 213.11C471.072 213.11 467.296 211.574 464.608 208.502C461.984 205.43 461.184 201.014 462.208 195.254L467.488 164.822H462.688L462.976 162.902H467.872L489.184 147.35H491.296L488.512 162.902H500.704L500.416 164.822H488.224Z" fill="white"/>
</g>
<path d="M221 356.908C400.726 357.332 384.182 383.227 572 356.908" stroke="#C09D59" stroke-width="5" stroke-linecap="round"/>
</g>
<defs>
<filter id="filter0_d_866_62" x="247.258" y="250.055" width="458.586" height="124.654" filterUnits="userSpaceOnUse" color-interpolation-filters="sRGB">
<feFlood flood-opacity="0" result="BackgroundImageFix"/>
<feColorMatrix in="SourceAlpha" type="matrix" values="0 0 0 0 0 0 0 0 0 0 0 0 0 0 0 0 0 0 127 0" result="hardAlpha"/>
<feOffset dy="15"/>
<feGaussianBlur stdDeviation="7.5"/>
<feComposite in2="hardAlpha" operator="out"/>
<feColorMatrix type="matrix" values="0 0 0 0 0 0 0 0 0 0 0 0 0 0 0 0 0 0 0.16 0"/>
<feBlend mode="normal" in2="BackgroundImageFix" result="effect1_dropShadow_866_62"/>
<feBlend mode="normal" in="SourceGraphic" in2="effect1_dropShadow_866_62" result="shape"/>
</filter>
<filter id="filter1_d_866_62" x="2.72656" y="280.35" width="250.07" height="96.2402" filterUnits="userSpaceOnUse" color-interpolation-filters="sRGB">
<feFlood flood-opacity="0" result="BackgroundImageFix"/>
<feColorMatrix in="SourceAlpha" type="matrix" values="0 0 0 0 0 0 0 0 0 0 0 0 0 0 0 0 0 0 127 0" result="hardAlpha"/>
<feOffset dy="15"/>
<feGaussianBlur stdDeviation="7.5"/>
<feComposite in2="hardAlpha" operator="out"/>
<feColorMatrix type="matrix" values="0 0 0 0 0 0 0 0 0 0 0 0 0 0 0 0 0 0 0.16 0"/>
<feBlend mode="normal" in2="BackgroundImageFix" result="effect1_dropShadow_866_62"/>
<feBlend mode="normal" in="SourceGraphic" in2="effect1_dropShadow_866_62" result="shape"/>
</filter>
<filter id="filter2_d_866_62" x="-8.80078" y="139.182" width="405.781" height="89.2168" filterUnits="userSpaceOnUse" color-interpolation-filters="sRGB">
<feFlood flood-opacity="0" result="BackgroundImageFix"/>
<feColorMatrix in="SourceAlpha" type="matrix" values="0 0 0 0 0 0 0 0 0 0 0 0 0 0 0 0 0 0 127 0" result="hardAlpha"/>
<feOffset dy="1"/>
<feGaussianBlur stdDeviation="5"/>
<feComposite in2="hardAlpha" operator="out"/>
<feColorMatrix type="matrix" values="0 0 0 0 0 0 0 0 0 0 0 0 0 0 0 0 0 0 0.4 0"/>
<feBlend mode="normal" in2="BackgroundImageFix" result="effect1_dropShadow_866_62"/>
<feBlend mode="normal" in="SourceGraphic" in2="effect1_dropShadow_866_62" result="shape"/>
</filter>
<filter id="filter3_d_866_62" x="413.266" y="138.518" width="102.438" height="104.592" filterUnits="userSpaceOnUse" color-interpolation-filters="sRGB">
<feFlood flood-opacity="0" result="BackgroundImageFix"/>
<feColorMatrix in="SourceAlpha" type="matrix" values="0 0 0 0 0 0 0 0 0 0 0 0 0 0 0 0 0 0 127 0" result="hardAlpha"/>
<feOffset dy="15"/>
<feGaussianBlur stdDeviation="7.5"/>
<feComposite in2="hardAlpha" operator="out"/>
<feColorMatrix type="matrix" values="0 0 0 0 0 0 0 0 0 0 0 0 0 0 0 0 0 0 0.16 0"/>
<feBlend mode="normal" in2="BackgroundImageFix" result="effect1_dropShadow_866_62"/>
<feBlend mode="normal" in="SourceGraphic" in2="effect1_dropShadow_866_62" result="shape"/>
</filter>
<clipPath id="clip0_866_62">
<rect width="801.89" height="801.89" fill="white" transform="translate(-60 -161.33)"/>
</clipPath>
</defs>
</svg>
