<svg width="802" height="802" viewBox="0 0 802 802" fill="none" xmlns="http://www.w3.org/2000/svg">
<g clip-path="url(#clip0_866_18)">
<g filter="url(#filter0_d_866_18)">
<path d="M419.632 412.88L413.24 449.328H410.52L392.84 415.6H388.624L375.296 491.896L384.136 501.28L383.592 504H332.592L333.136 501.28L345.24 491.896L358.568 415.6H354.488L324.976 449.328H322.256L328.648 412.88H419.632ZM497.494 495.296C499.126 495.296 500.713 494.661 502.254 493.392L502.934 494.208C498.219 502.096 491.057 506.04 481.446 506.04C479.633 506.04 477.865 505.813 476.142 505.36C474.419 504.907 472.606 504.136 470.702 503.048C468.889 501.869 467.438 500.056 466.35 497.608C465.262 495.16 464.763 492.168 464.854 488.632H464.31C461.137 494.163 457.555 498.469 453.566 501.552C449.577 504.544 444.545 506.04 438.47 506.04C431.851 506.04 426.955 503.955 423.782 499.784C420.699 495.613 419.929 489.267 421.47 480.744L427.318 447.016L419.974 437.632L420.518 434.912H458.87L450.846 480.064C449.486 487.408 451.073 491.08 455.606 491.08C458.054 491.08 460.23 489.901 462.134 487.544C464.129 485.096 465.489 482.285 466.214 479.112L473.966 434.912H503.206L493.958 487.952C493.595 490.128 493.731 491.896 494.366 493.256C495.091 494.616 496.134 495.296 497.494 495.296ZM543.186 495.296C544.818 495.296 546.405 494.661 547.946 493.392L548.626 494.208C543.911 502.096 536.749 506.04 527.138 506.04C525.143 506.04 523.194 505.768 521.29 505.224C519.386 504.68 517.437 503.683 515.442 502.232C513.447 500.781 511.997 498.515 511.09 495.432C510.274 492.259 510.274 488.405 511.09 483.872L521.562 425.12L514.082 415.6L514.626 412.88H552.978L539.65 487.952C539.287 490.128 539.423 491.896 540.058 493.256C540.783 494.616 541.826 495.296 543.186 495.296ZM576.889 506.04C569.636 506.04 563.833 503.683 559.481 498.968C555.22 494.163 553.089 487.363 553.089 478.568C553.089 465.603 557.532 454.768 566.417 446.064C575.303 437.269 586.183 432.872 599.057 432.872C604.044 432.872 608.396 433.643 612.113 435.184C615.831 436.725 619.503 439.264 623.129 442.8L640.537 432.872H643.529L633.737 487.952C633.375 490.219 633.511 492.032 634.145 493.392C634.871 494.661 635.959 495.296 637.409 495.296C638.951 495.296 640.492 494.661 642.033 493.392L642.713 494.208C638.089 502.096 631.108 506.04 621.769 506.04C616.692 506.04 612.431 504.68 608.985 501.96C605.54 499.149 604.135 494.253 604.769 487.272L604.905 485.912C602.367 491.533 598.649 496.293 593.753 500.192C588.857 504.091 583.236 506.04 576.889 506.04ZM591.849 492.712C595.295 492.712 598.287 490.763 600.825 486.864C603.364 482.965 605.359 477.571 606.809 470.68L607.081 469.864C607.716 466.6 608.26 463.744 608.713 461.296C609.167 458.848 609.529 456.219 609.801 453.408C610.164 450.597 610.255 448.24 610.073 446.336C609.983 444.341 609.711 442.483 609.257 440.76C608.804 439.037 608.033 437.768 606.945 436.952C605.857 436.045 604.452 435.592 602.729 435.592C599.193 435.592 595.839 438.176 592.665 443.344C589.583 448.421 587.225 454.179 585.593 460.616C584.052 466.963 583.281 472.584 583.281 477.48C583.281 487.635 586.137 492.712 591.849 492.712ZM650.705 456.536C658.955 453.091 664.486 450.371 667.297 448.376C670.198 446.291 672.51 443.843 674.233 441.032L674.097 440.624C671.83 441.259 670.062 441.576 668.793 441.576C664.622 441.576 661.131 440.307 658.321 437.768C655.51 435.229 654.105 431.875 654.105 427.704C654.105 423.08 655.601 419.227 658.593 416.144C661.585 412.971 665.438 411.384 670.153 411.384C674.958 411.384 678.857 412.925 681.849 416.008C684.841 419 686.382 422.717 686.473 427.16C686.473 430.696 685.793 433.96 684.433 436.952C683.163 439.944 681.577 442.437 679.673 444.432C677.769 446.427 675.139 448.376 671.785 450.28C668.43 452.093 665.302 453.589 662.401 454.768C659.59 455.856 655.963 457.125 651.521 458.576L650.705 456.536ZM730.852 460.208C736.02 462.928 739.783 465.829 742.14 468.912C744.588 471.995 745.812 476.029 745.812 481.016C745.812 485.096 744.951 488.723 743.228 491.896C741.596 494.979 739.511 497.381 736.972 499.104C734.524 500.827 731.623 502.232 728.268 503.32C724.913 504.408 721.831 505.133 719.02 505.496C716.209 505.859 713.353 506.04 710.452 506.04C707.369 506.04 704.332 505.768 701.34 505.224C698.348 504.771 696.081 504.317 694.54 503.864C693.089 503.411 690.868 502.64 687.876 501.552C684.884 500.464 683.116 499.829 682.572 499.648L686.924 476.528H689.236L708.956 503.048H709.5C714.94 503.048 717.66 500.056 717.66 494.072C717.66 489.448 715.393 485.912 710.86 483.464L704.74 480.064C699.209 477.072 695.129 474.08 692.5 471.088C689.871 468.005 688.556 463.88 688.556 458.712C688.556 454.088 689.644 450.053 691.82 446.608C693.996 443.072 696.852 440.352 700.388 438.448C703.924 436.544 707.551 435.139 711.268 434.232C714.985 433.325 718.748 432.872 722.556 432.872C732.348 432.872 741.777 434.957 750.844 439.128L746.9 461.296H744.452L724.596 435.456H723.644C718.385 435.456 715.756 438.947 715.756 445.928C715.756 450.099 718.385 453.589 723.644 456.4L730.852 460.208Z" fill="white"/>
</g>
<path d="M530.424 528.854C21.997 565.98 536.94 547.237 857.965 533.225L361.52 569.33" stroke="#C09D59" stroke-width="5"/>
<g filter="url(#filter1_d_866_18)">
<path d="M108.16 461.68L103.648 479.536L98.272 502H81.664L64.96 435.856H81.184L86.08 459.856L90.112 479.536H90.784L95.776 459.568L101.824 435.856H115.552L121.984 461.104L126.592 479.536H127.264L131.008 461.008L136.192 435.856H152.416L135.616 502H119.104L113.728 479.536L108.928 461.68H108.16ZM176.288 435.856V502H161.024V435.856H176.288ZM217.024 449.584V502H201.76V449.584H184.96V435.856H233.728V449.584H217.024ZM276.863 502V475.216H255.743V502H240.479V435.856H255.743V461.488H276.863V435.856H292.319V502H276.863Z" fill="white"/>
</g>
<g filter="url(#filter2_d_866_18)">
<path d="M59.952 373V306.856H72.912V361.288H105.648V373H59.952ZM114.073 306.856H159.673V318.664H127.225V333.832H154.969V345.64H127.225V361.288H159.673V373H114.073V306.856ZM197.591 318.76V373H184.439V318.76H166.871V306.856H215.063V318.76H197.591ZM224.586 324.232C226.25 323.016 227.594 321.64 228.618 320.104C229.642 318.504 230.25 316.936 230.442 315.4C228.97 315.08 227.69 314.312 226.602 313.096C225.578 311.816 225.066 310.216 225.066 308.296C225.066 306.184 225.834 304.424 227.37 303.016C228.906 301.544 230.73 300.808 232.842 300.808C235.53 300.808 237.61 301.736 239.082 303.592C240.554 305.448 241.29 307.784 241.29 310.6C241.29 312.52 240.97 314.44 240.33 316.36C239.754 318.28 238.922 320.104 237.834 321.832C236.746 323.496 235.434 325.032 233.898 326.44C232.362 327.848 230.666 329.032 228.81 329.992L224.586 324.232ZM303.459 353.896C303.459 357.096 302.819 359.944 301.539 362.44C300.259 364.872 298.467 366.92 296.163 368.584C293.923 370.184 291.267 371.4 288.195 372.232C285.123 373.064 281.795 373.48 278.211 373.48C273.411 373.48 268.899 372.808 264.675 371.464C260.451 370.12 256.323 367.752 252.291 364.36L259.683 354.76C262.563 357 265.539 358.728 268.611 359.944C271.747 361.096 274.851 361.672 277.923 361.672C280.035 361.672 281.827 361.48 283.299 361.096C284.771 360.648 285.955 360.072 286.851 359.368C287.747 358.6 288.387 357.768 288.771 356.872C289.219 355.912 289.443 354.952 289.443 353.992C289.443 352.52 289.059 351.304 288.291 350.344C287.587 349.384 286.531 348.584 285.123 347.944C283.779 347.24 282.147 346.632 280.227 346.12C278.371 345.544 276.291 344.936 273.987 344.296C271.427 343.656 268.963 342.888 266.595 341.992C264.291 341.032 262.243 339.848 260.451 338.44C258.659 336.968 257.219 335.208 256.131 333.16C255.107 331.048 254.595 328.52 254.595 325.576C254.595 322.696 255.139 320.04 256.227 317.608C257.315 315.176 258.819 313.096 260.739 311.368C262.723 309.576 265.091 308.2 267.843 307.24C270.659 306.216 273.763 305.704 277.155 305.704C281.187 305.64 285.219 306.024 289.251 306.856C293.283 307.688 297.187 309.352 300.963 311.848L295.203 322.408C292.131 320.552 289.219 319.272 286.467 318.568C283.715 317.864 280.995 317.512 278.307 317.512C277.027 317.512 275.747 317.672 274.467 317.992C273.251 318.312 272.131 318.792 271.107 319.432C270.147 320.008 269.347 320.808 268.707 321.832C268.131 322.792 267.843 323.944 267.843 325.288C267.843 326.632 268.163 327.784 268.803 328.744C269.507 329.64 270.499 330.44 271.779 331.144C273.059 331.784 274.595 332.36 276.387 332.872C278.243 333.384 280.323 333.896 282.627 334.408C289.603 335.944 294.819 338.28 298.275 341.416C301.731 344.552 303.459 348.712 303.459 353.896ZM389.399 351.784C389.399 355.24 388.727 358.312 387.383 361C386.103 363.624 384.343 365.832 382.103 367.624C379.927 369.416 377.399 370.76 374.519 371.656C371.703 372.552 368.791 373 365.783 373H340.823V306.856H365.879C368.887 306.856 371.799 307.304 374.615 308.2C377.495 309.032 380.023 310.344 382.199 312.136C384.375 313.928 386.103 316.168 387.383 318.856C388.727 321.48 389.399 324.552 389.399 328.072V351.784ZM376.055 330.568C376.055 328.392 375.671 326.568 374.903 325.096C374.199 323.56 373.271 322.312 372.119 321.352C370.967 320.392 369.655 319.72 368.183 319.336C366.775 318.888 365.335 318.664 363.863 318.664H353.879V361.384H363.863C365.271 361.384 366.679 361.192 368.087 360.808C369.559 360.36 370.871 359.656 372.023 358.696C373.239 357.736 374.199 356.52 374.903 355.048C375.671 353.512 376.055 351.624 376.055 349.384V330.568ZM452.377 351.88C452.377 355.464 451.705 358.6 450.361 361.288C449.017 363.976 447.193 366.248 444.889 368.104C442.585 369.96 439.865 371.368 436.729 372.328C433.657 373.224 430.393 373.672 426.937 373.672C423.481 373.672 420.185 373.224 417.049 372.328C413.977 371.368 411.289 369.96 408.984 368.104C406.681 366.248 404.857 363.976 403.513 361.288C402.169 358.6 401.497 355.464 401.497 351.88V327.592C401.497 324.072 402.201 320.968 403.609 318.28C405.017 315.592 406.905 313.352 409.273 311.56C411.641 309.768 414.361 308.424 417.433 307.528C420.505 306.632 423.673 306.184 426.937 306.184C430.201 306.184 433.369 306.664 436.441 307.624C439.513 308.584 442.233 309.992 444.601 311.848C446.969 313.64 448.857 315.912 450.265 318.664C451.673 321.352 452.377 324.456 452.377 327.976V351.88ZM439.129 330.28C439.129 328.104 438.777 326.28 438.073 324.808C437.369 323.272 436.441 322.024 435.289 321.064C434.137 320.104 432.825 319.4 431.353 318.952C429.945 318.504 428.473 318.28 426.937 318.28C425.401 318.28 423.897 318.504 422.425 318.952C420.953 319.4 419.641 320.104 418.489 321.064C417.337 322.024 416.409 323.272 415.705 324.808C415.001 326.28 414.649 328.104 414.649 330.28V349.576C414.649 351.752 415.001 353.608 415.705 355.144C416.409 356.68 417.337 357.928 418.489 358.888C419.641 359.848 420.953 360.552 422.425 361C423.897 361.384 425.401 361.576 426.937 361.576C428.473 361.576 429.945 361.384 431.353 361C432.825 360.552 434.137 359.848 435.289 358.888C436.441 357.928 437.369 356.68 438.073 355.144C438.777 353.608 439.129 351.752 439.129 349.576V330.28Z" fill="white"/>
</g>
<g filter="url(#filter3_d_866_18)">
<path d="M515.624 317.512C513.64 319.432 511.112 320.392 508.04 320.392C504.968 320.392 502.44 319.432 500.456 317.512C498.472 315.528 497.48 313.064 497.48 310.12C497.48 307.304 498.472 304.904 500.456 302.92C502.44 300.872 504.968 299.848 508.04 299.848C511.112 299.848 513.64 300.872 515.624 302.92C517.672 304.904 518.696 307.304 518.696 310.12C518.696 313.064 517.672 315.528 515.624 317.512ZM515.912 324.232L509.288 361.672C509.032 363.208 509.128 364.456 509.576 365.416C510.088 366.376 510.824 366.856 511.784 366.856C512.936 366.856 514.056 366.408 515.144 365.512L515.624 366.088C512.296 371.656 507.24 374.44 500.456 374.44C499.048 374.44 497.672 374.248 496.328 373.864C494.984 373.48 493.608 372.776 492.2 371.752C490.792 370.728 489.768 369.128 489.128 366.952C488.552 364.712 488.552 361.992 489.128 358.792L493.736 332.872L488.456 326.152L488.84 324.232H515.912ZM548.224 326.152L542.656 357.544C542.336 359.528 542.528 361.128 543.232 362.344C543.936 363.496 545.056 364.072 546.592 364.072C548.576 364.072 550.752 363.336 553.12 361.864L553.6 362.44C549.632 370.44 543.744 374.44 535.936 374.44C531.072 374.44 527.296 372.904 524.608 369.832C521.984 366.76 521.184 362.344 522.208 356.584L527.488 326.152H522.688L522.976 324.232H527.872L549.184 308.68H551.296L548.512 324.232H560.704L560.416 326.152H548.224Z" fill="white"/>
</g>
<path d="M281 518.238C460.726 518.662 444.182 544.557 632 518.238" stroke="#C09D59" stroke-width="5" stroke-linecap="round"/>
</g>
<defs>
<filter id="filter0_d_866_18" x="307.258" y="411.385" width="458.586" height="124.654" filterUnits="userSpaceOnUse" color-interpolation-filters="sRGB">
<feFlood flood-opacity="0" result="BackgroundImageFix"/>
<feColorMatrix in="SourceAlpha" type="matrix" values="0 0 0 0 0 0 0 0 0 0 0 0 0 0 0 0 0 0 127 0" result="hardAlpha"/>
<feOffset dy="15"/>
<feGaussianBlur stdDeviation="7.5"/>
<feComposite in2="hardAlpha" operator="out"/>
<feColorMatrix type="matrix" values="0 0 0 0 0 0 0 0 0 0 0 0 0 0 0 0 0 0 0.16 0"/>
<feBlend mode="normal" in2="BackgroundImageFix" result="effect1_dropShadow_866_18"/>
<feBlend mode="normal" in="SourceGraphic" in2="effect1_dropShadow_866_18" result="shape"/>
</filter>
<filter id="filter1_d_866_18" x="49.9609" y="435.855" width="257.359" height="96.1445" filterUnits="userSpaceOnUse" color-interpolation-filters="sRGB">
<feFlood flood-opacity="0" result="BackgroundImageFix"/>
<feColorMatrix in="SourceAlpha" type="matrix" values="0 0 0 0 0 0 0 0 0 0 0 0 0 0 0 0 0 0 127 0" result="hardAlpha"/>
<feOffset dy="15"/>
<feGaussianBlur stdDeviation="7.5"/>
<feComposite in2="hardAlpha" operator="out"/>
<feColorMatrix type="matrix" values="0 0 0 0 0 0 0 0 0 0 0 0 0 0 0 0 0 0 0.16 0"/>
<feBlend mode="normal" in2="BackgroundImageFix" result="effect1_dropShadow_866_18"/>
<feBlend mode="normal" in="SourceGraphic" in2="effect1_dropShadow_866_18" result="shape"/>
</filter>
<filter id="filter2_d_866_18" x="49.9531" y="291.809" width="412.422" height="92.8633" filterUnits="userSpaceOnUse" color-interpolation-filters="sRGB">
<feFlood flood-opacity="0" result="BackgroundImageFix"/>
<feColorMatrix in="SourceAlpha" type="matrix" values="0 0 0 0 0 0 0 0 0 0 0 0 0 0 0 0 0 0 127 0" result="hardAlpha"/>
<feOffset dy="1"/>
<feGaussianBlur stdDeviation="5"/>
<feComposite in2="hardAlpha" operator="out"/>
<feColorMatrix type="matrix" values="0 0 0 0 0 0 0 0 0 0 0 0 0 0 0 0 0 0 0.4 0"/>
<feBlend mode="normal" in2="BackgroundImageFix" result="effect1_dropShadow_866_18"/>
<feBlend mode="normal" in="SourceGraphic" in2="effect1_dropShadow_866_18" result="shape"/>
</filter>
<filter id="filter3_d_866_18" x="473.266" y="299.848" width="102.438" height="104.592" filterUnits="userSpaceOnUse" color-interpolation-filters="sRGB">
<feFlood flood-opacity="0" result="BackgroundImageFix"/>
<feColorMatrix in="SourceAlpha" type="matrix" values="0 0 0 0 0 0 0 0 0 0 0 0 0 0 0 0 0 0 127 0" result="hardAlpha"/>
<feOffset dy="15"/>
<feGaussianBlur stdDeviation="7.5"/>
<feComposite in2="hardAlpha" operator="out"/>
<feColorMatrix type="matrix" values="0 0 0 0 0 0 0 0 0 0 0 0 0 0 0 0 0 0 0.16 0"/>
<feBlend mode="normal" in2="BackgroundImageFix" result="effect1_dropShadow_866_18"/>
<feBlend mode="normal" in="SourceGraphic" in2="effect1_dropShadow_866_18" result="shape"/>
</filter>
<clipPath id="clip0_866_18">
<rect width="801.89" height="801.89" fill="white"/>
</clipPath>
</defs>
</svg>
