<svg width="42" height="26" viewBox="0 0 42 26" fill="none" xmlns="http://www.w3.org/2000/svg">
<g clip-path="url(#clip0_866_90)">
<path d="M39.3253 1.45312C38.1697 1.37174 37.0182 1.29443 35.8707 1.22119C34.7233 1.14795 33.5717 1.1276 32.4161 1.16016C31.5047 1.17643 30.5851 1.20898 29.6573 1.25781C28.7296 1.30664 27.8059 1.35954 26.8863 1.4165C25.9667 1.47347 25.0512 1.53451 24.1398 1.59961C23.212 1.64844 22.2924 1.7054 21.381 1.77051C19.7045 1.44499 18.0362 1.24154 16.3761 1.16016C14.6997 1.07878 13.0232 1.05029 11.3468 1.07471C9.67036 1.09912 7.99393 1.13574 6.3175 1.18457C4.64107 1.2334 2.96463 1.2334 1.2882 1.18457C1.14172 1.18457 0.970818 1.26595 0.775506 1.42871C0.580193 1.59147 0.449985 1.74609 0.384881 1.89258C0.254672 2.18555 0.26281 2.45003 0.409295 2.68604C0.555779 2.92204 0.775506 3.12956 1.06847 3.30859C1.99621 3.86198 3.00939 4.29736 4.10803 4.61475C5.20666 4.93213 6.35005 5.09896 7.5382 5.11523C8.30317 5.18034 9.08442 5.2373 9.88195 5.28613C10.6958 5.33496 11.5299 5.37565 12.3844 5.4082C13.2389 5.44076 14.0974 5.47331 14.9601 5.50586C15.839 5.52213 16.726 5.53027 17.6212 5.53027C18.7768 5.53027 19.9324 5.514 21.088 5.48145C22.2436 5.44889 23.3992 5.40006 24.5548 5.33496L24.2374 5.35938C24.5792 5.37565 24.9251 5.39193 25.275 5.4082C25.625 5.42448 25.9708 5.44076 26.3126 5.45703C26.8986 5.47331 27.5252 5.48958 28.1925 5.50586C28.8598 5.52213 29.5353 5.53027 30.2189 5.53027C31.0327 5.53027 31.8383 5.52213 32.6359 5.50586C33.4497 5.47331 34.2553 5.43669 35.0528 5.396C35.8504 5.35531 36.6479 5.30241 37.4454 5.2373C38.243 5.1722 39.0323 5.09082 39.8136 4.99316L39.423 5.01758C40.0415 4.95247 40.5664 4.77344 40.9977 4.48047C41.429 4.1875 41.6202 3.77246 41.5714 3.23535C41.4737 2.73079 41.2215 2.30762 40.8146 1.96582C40.4077 1.62402 39.9438 1.45312 39.423 1.45312C39.4067 1.45312 39.3904 1.45312 39.3741 1.45312C39.3579 1.45312 39.3416 1.45312 39.3253 1.45312ZM2.63097 15.125C3.78657 15.1901 4.9381 15.2511 6.08556 15.3081C7.23303 15.3651 8.38455 15.3691 9.54015 15.3203C10.4516 15.2878 11.3712 15.2389 12.2989 15.1738C13.2267 15.1087 14.1463 15.0436 15.0577 14.9785C15.9692 14.9134 16.8888 14.8402 17.8165 14.7588C18.728 14.6774 19.6476 14.6042 20.5753 14.5391C22.2355 14.832 23.9038 15.0111 25.5802 15.0762C27.2403 15.125 28.9086 15.125 30.5851 15.0762C32.2615 15.0273 33.9379 14.9622 35.6144 14.8809C37.2908 14.7995 38.9672 14.7751 40.6437 14.8076C40.7902 14.8076 40.957 14.7222 41.1442 14.5513C41.3313 14.3804 41.4575 14.2217 41.5226 14.0752C41.6528 13.7822 41.6406 13.5177 41.486 13.2817C41.3313 13.0457 41.1075 12.8464 40.8146 12.6836C39.8868 12.1465 38.8696 11.7274 37.7628 11.4263C36.656 11.1252 35.5086 10.9746 34.3204 10.9746C33.7019 10.9258 33.0672 10.8851 32.4161 10.8525C31.7651 10.82 31.1018 10.7956 30.4264 10.7793C29.7509 10.763 29.0551 10.7467 28.339 10.7305C27.6391 10.7142 26.9311 10.7061 26.215 10.7061C25.4663 10.7061 24.7176 10.7142 23.9689 10.7305C23.2039 10.7467 22.4471 10.7671 21.6984 10.7915C20.9497 10.8159 20.2091 10.8525 19.4767 10.9014C18.728 10.9339 17.9793 10.9746 17.2306 11.0234L17.6212 10.999C17.2794 10.999 16.9376 10.9909 16.5958 10.9746C16.254 10.9583 15.9041 10.9502 15.546 10.9502C15.1717 10.9339 14.7648 10.9217 14.3253 10.9136C13.8859 10.9054 13.4383 10.9014 12.9825 10.9014C12.0548 10.9014 11.1271 10.9176 10.1993 10.9502C9.28788 10.9827 8.37642 11.0275 7.46496 11.0845C6.5535 11.1414 5.64204 11.2106 4.73058 11.292C3.81913 11.3896 2.91581 11.4954 2.02062 11.6094L2.46008 11.5605C1.84159 11.6582 1.31668 11.8535 0.885369 12.1465C0.454054 12.4395 0.270948 12.8545 0.336052 13.3916C0.449985 13.8962 0.706332 14.3112 1.1051 14.6367C1.50386 14.9622 1.96366 15.125 2.48449 15.125C2.51704 15.125 2.54553 15.125 2.56994 15.125C2.59435 15.125 2.62284 15.125 2.65539 15.125H2.63097ZM2.58215 20.9111C3.72147 20.8298 4.86893 20.7524 6.02453 20.6792C7.18013 20.606 8.32759 20.5775 9.46691 20.5938C10.3946 20.6263 11.3224 20.667 12.2501 20.7158C13.1616 20.7646 14.0812 20.8135 15.0089 20.8623C15.9366 20.9111 16.8562 20.9681 17.7677 21.0332C18.6954 21.0983 19.615 21.1553 20.5265 21.2041C22.1866 20.8949 23.8549 20.6995 25.5314 20.6182C27.2078 20.5368 28.8842 20.5042 30.5607 20.5205C32.2371 20.5368 33.9135 20.5693 35.59 20.6182C37.2664 20.6833 38.9428 20.6914 40.6193 20.6426C40.7657 20.6263 40.9326 20.7036 41.1197 20.8745C41.3069 21.0454 41.4412 21.196 41.5226 21.3262C41.6528 21.6191 41.6406 21.8877 41.486 22.1318C41.3313 22.376 41.1157 22.5876 40.839 22.7666C39.9112 23.32 38.8981 23.7513 37.7994 24.0605C36.7008 24.3698 35.5574 24.5407 34.3693 24.5732H34.3448C33.5961 24.6221 32.8149 24.679 32.0011 24.7441C31.1873 24.793 30.3572 24.8337 29.5109 24.8662C28.6645 24.8988 27.8019 24.9232 26.923 24.9395C26.0441 24.9557 25.1652 24.9639 24.2862 24.9639C23.1144 24.9639 21.9506 24.9476 20.795 24.915C19.6394 24.8825 18.492 24.8337 17.3527 24.7686L17.67 24.793C17.312 24.8092 16.962 24.8255 16.6202 24.8418C16.2784 24.8581 15.9366 24.8743 15.5948 24.8906C15.0089 24.9232 14.3823 24.9476 13.715 24.9639C13.0476 24.9801 12.364 24.9883 11.6642 24.9883C10.8504 24.9883 10.0447 24.972 9.24719 24.9395C8.44966 24.9232 7.64806 24.8906 6.8424 24.8418C6.03674 24.793 5.24328 24.736 4.46203 24.6709C3.6645 24.6058 2.87511 24.5244 2.09386 24.4268L2.46008 24.4756C1.84159 24.3942 1.31668 24.207 0.885369 23.9141C0.454054 23.6211 0.26281 23.2142 0.311638 22.6934C0.409295 22.1725 0.657504 21.7453 1.05627 21.4116C1.45503 21.078 1.92297 20.9111 2.46008 20.9111C2.47635 20.9111 2.4967 20.9111 2.52111 20.9111C2.54553 20.9111 2.56587 20.9111 2.58215 20.9111Z" fill="white"/>
</g>
<defs>
<clipPath id="clip0_866_90">
<rect width="41.39" height="25" fill="white" transform="matrix(1 0 0 -1 0.300781 25.5)"/>
</clipPath>
</defs>
</svg>
